<?xml version="1.0" encoding="UTF-8"?>
<svg width="100pt" height="100pt" version="1.1" viewBox="0 0 100 100" xmlns="http://www.w3.org/2000/svg">
 <g>
  <path d="m48.891 75.09-0.019531 0.058594-0.03125 0.023437z"/>
  <path d="m88.129 47.539-0.11719 0.17969-0.011719-0.007812z"/>
  <path d="m88.129 47.539-0.11719 0.17969-0.011719-0.007812z"/>
  <path d="m98.449 28.441-0.089844 0.19922-0.16016 0.089844h-0.097657l-0.050781 0.039062-0.089843 0.16016-0.35156 0.32031-0.21875 0.10938-0.26172 0.44922-0.17969-0.17969-0.25-0.019531-0.14844 0.26172-0.089843 0.019531-0.089844 0.21875-0.082032 0.12109-0.10937 0.058593-0.23047-0.039062h-0.097657v0.14844l-0.22266 0.24219 0.042969 0.21875-0.070313 0.28906-0.0625 0.070312-0.11719 0.070312h-0.17188l-0.050781 0.082032v0.14062l-0.14844 0.14844-0.33203 0.039063-0.039062 0.10938v0.20312l-0.050782 0.066406-0.058594-0.046875-0.070312-0.19141-0.070312-0.050782-0.44141 0.40234 0.089844 0.25781 0.09375 0.050781-0.023437 0.089844-0.17969 0.17188-0.089844 0.4375-0.14844 0.28906-0.03125 0.29297-0.039063 0.21875-0.039062 0.089844-0.03125 0.058594v0.3125l0.070312 0.26953 0.23828 0.19141 0.050781 0.10938-0.039063 0.070312-0.10156 0.070313-0.10938 0.19922-0.078125 0.25781 0.019531 0.13281h0.23828l0.22266 0.12891 0.35938 0.35938 0.12891 0.23828 0.17188 0.20312 0.41797 0.019532 0.24219-0.10938 0.13672-0.27344-0.070313-0.058594-0.16797-0.16016-0.21875-0.097656 0.019532-0.11328h0.23828l0.26953 0.41016 0.17188 0.40234-0.019531 0.19922-0.16016-0.12891-0.19922 0.14844-0.30078 0.12891-0.29297 0.25h-0.089844l-0.058593-0.027344v-0.10938l-0.050782-0.20312h-0.058594l-0.16016 0.29297-0.21875 0.25-0.0625 0.078125-0.007812 0.019531-0.17188 0.011719-0.10938 0.10938h-0.070313v0.16797l-0.10938 0.023437-0.058594-0.09375v-0.40625l-0.050781-0.050781-0.15234 0.14062v0.21875l0.0625 0.097656v0.14062l-0.19922 0.17969-0.33203 0.22266-0.089844-0.011719-0.21094 0.03125-0.52734 0.21875-0.14062-0.019531-0.0625 0.058594v0.089843l-0.046876 0.023438-0.3125 0.046875-0.4375 0.20312-0.0625-0.070313-0.25 0.28906-0.60937 0.51953-0.23047 0.12109-0.16797 0.12891-0.070312 0.21875 0.027343 0.17969 0.11328 0.082031 0.1875-0.26172 0.17969-0.089844 0.49219-0.23828 0.60937-0.3125 0.46875-0.25 0.13281-0.12891 0.089844-0.14844 0.14844-0.15234 0.050782 0.0625-0.16016 0.26953-0.15234 0.16797-0.070313 0.14062 0.042969 0.0625 0.19922-0.089843 0.070313-0.15234 0.12891-0.10938 0.21875-0.089844 0.18359-0.050781 0.17969-0.1875 0.039063 0.039063-0.019531 0.070312-0.089844 0.19922-0.10938 0.078125-0.18359 0.11328-0.089843 0.10938-0.14844 0.046875-0.17969 0.15234-0.21875 0.14062-0.83984 0.57031-0.21094 0.19922-0.17969 0.089844-0.25 0.12891-0.32031 0.082031-0.10156 0.089844h-0.32812l-0.15234-0.019531-0.23828 0.21875-0.03125 0.089843 0.03125 0.039063 0.089843 0.03125 0.089844-0.070313 0.26172-0.070312 0.12891 0.17969 0.070313 0.62109 0.058594 0.76953v0.17969l-0.10938 0.26172-0.10937 0.26953-0.26172 0.36719-0.10938 0.27344-0.17969 0.32812-0.019531 0.26172-0.12891 0.26953-0.11328 0.12891-0.10938-0.089844 0.019532-0.17969-0.019532-0.28125-0.10937-0.019531-0.28906-0.050782-0.12891-0.039062-0.42188-0.21875-0.12891-0.14062-0.14063-0.19141-0.10937-0.19922-0.082032 0.039062-0.007812 0.019532 0.007812 0.14062 0.082032 0.17188 0.19922 0.23828 0.10938 0.17969 0.25 0.44141 0.082031 0.14062 0.10938 0.14844 0.32812 0.21875 0.22266 0.22266 0.11719 0.32812 0.042969 0.22266 0.019531 0.066406-0.15234 0.77344-0.027343 0.14844-0.023438 0.089844-0.039062 0.089844-0.25781 0.19922-0.011718 0.10938 0.011718 0.29297-0.050781 0.19922-0.089844 0.21875-0.22266 0.51953-0.10938 0.33984-0.058594 0.35156-0.089844-0.25v-0.35156l-0.050781-0.32812 0.050781-0.37109 0.078126-0.14062 0.14062-0.16797 0.019532-0.10938-0.019532-0.20312-0.050781-0.019531 0.011719-0.007812 0.011719 0.007812 0.11719-0.17969-0.12891 0.17188-0.03125-0.019532-0.21875 0.007813-0.089844-0.14062v-0.089844l-0.14844-0.25781 0.039062-0.15234-0.070312-0.027344h-0.15234l-0.089844 0.070312h-0.12891l-0.25781-0.17969-0.11328-0.26172 0.023438-0.10938-0.050781-0.10938 0.050781-0.20312-0.050781-0.089843-0.19922-0.070313-0.042969-0.097656 0.24219-0.14062 0.019531-0.078125-0.10156-0.43359-0.14062-0.058594-0.089843-0.19922 0.089843-0.19922 0.11328-0.15234 0.10938-0.17969 0.14062-0.25781-0.070312-0.10938-0.20312-0.011719-0.089844 0.30859-0.058593 0.070312-0.30859 0.24219-0.050782 0.14062-0.058593 0.089844-0.03125 0.097656 0.007812 0.10938 0.082031 0.070312 0.019532 0.13281-0.078125 0.39844 0.039062 0.23828 0.039063 0.16016 0.12109 0.40234 0.14844 0.23828 0.19922 0.082031-0.070313 0.089844h-0.058593l-0.019532 0.070312 0.019532 0.039063 0.17187 0.03125 0.16016 0.27734 0.089843 0.089843-0.011718 0.070313-0.078125 0.019531-0.18359-0.089844-0.38672-0.12891-0.26953-0.019531-0.24219 0.058594v0.070312l0.089843 0.019531 0.15234 0.13281 0.066406 0.019531 0.13281-0.082031 0.070312 0.019531 0.42969 0.22266 0.28906 0.089844 0.16016 0.17969-0.019531 0.097656-0.10938 0.089844 0.058594 0.29297-0.058594 0.058594-0.089844 0.050782v0.039062l0.32813 0.14062 0.10937 0.23828-0.019531 0.089844-0.050781 0.082031-0.25781-0.0625-0.03125 0.11328 0.089843 0.10938 0.050781-0.019532v0.089844l-0.14062 0.058594h-0.078126l-0.011718 0.050781 0.089844 0.078125 0.21875 0.011719 0.20312 0.078125 0.046876 0.11328-0.21875 0.21875h-0.10938l-0.26953-0.089844v0.10938l0.17969 0.089844 0.16797 0.14062 0.20312-0.070313 0.19922-0.14844h0.46875l0.019531 0.039063 0.22266 0.64062-0.16016 0.14844h-0.042968l0.019531 0.089844 0.070313 0.089844 0.042968 0.070312 0.12891 0.078125 0.089844 0.03125 0.070313 0.10938 0.070312 0.082031 0.097657 0.21875-0.039063 0.070313 0.019531 0.019531h-0.078125l-0.011719-0.078125-0.14844 0.039062h-0.089844l-0.089843-0.039062-0.082032 0.019531 0.0625 0.089844-0.019531 0.058594-0.44141 0.19922-0.089844 0.089843-0.16016 0.17188-0.28125 0.03125-0.050781 0.1875v0.050782l0.050781 0.019531 0.089843-0.019531 0.30078-0.14844 0.28906-0.070312 0.16016-0.10938 0.28125 0.019532 0.03125 0.039062-0.03125 0.16016 0.03125 0.070313 0.078126 0.058594 0.10937-0.039063 0.03125-0.089844 0.16797-0.19922h0.14062l0.10156 0.21875 0.03125 0.35938 0.039062 0.10938v0.082031l-0.24219 0.17969-0.046875 0.14844-0.042969 0.089844-0.17969 0.14062-0.12891 0.0625-0.14844 0.089843-0.3125-0.023437-0.10938-0.027344-0.039063 0.027344h-0.03125l-0.058593-0.13672v-0.082031l-0.050782-0.050781-0.070312-0.019532-0.058594 0.050782 0.058594 0.28125-0.058594 0.089844-0.042969-0.039063 0.10156 0.12891 0.12109 0.019531 0.12891 0.14844-0.089844 0.16016 0.050781 0.089844-0.33984 0.44141-0.10938 0.019532-0.20312-0.070313h-0.14844l-0.019531 0.070313 0.12891 0.089843 0.37891-0.019531 0.24219-0.070312 0.34766-0.16016 0.042969-0.12891 0.089844 0.03125 0.12891 0.10938-0.12891 0.29688-0.28125 0.3125-0.32813 0.050781-0.12109 0.078125-0.39062 0.050781-0.30859 0.53125-0.15234 0.019532v0.070312l0.019532 0.019532-0.35938 0.23828-0.19922 0.25-0.21094 0.46094-0.10938 0.55078-0.089843 0.14844-0.17969 0.070313-0.76953 0.14844-0.070313 0.070313-0.089844 0.0625-0.19922 0.11719-0.17188 0.24219-0.23828 0.28906-0.16016 0.37109-0.089843 0.25781v0.47266l-0.082032 0.070312-0.050781 0.10938-0.16797 0.019531-0.089844 0.10938-0.12891 0.15234-0.12109 0.19922-0.089843 0.16016-0.32031 0.21875-0.17969 0.28125-0.16016 0.14062-0.21875 0.16797-0.15234 0.14844-0.10938 0.089844-0.17969 0.09375-0.10938 0.039063-0.0625 0.070312 0.023438 0.070312-0.042969 0.039063-0.089844 0.17969-0.14062 0.14844h-0.14844l-0.039063 0.03125-0.011719 0.039062 0.03125 0.0625 0.078126 0.007813 0.03125 0.039063-0.019532 0.089843-0.089844 0.0625-0.16016 0.16016-0.058594 0.12891v0.089844l0.14844 0.039062-0.039062 0.10938-0.089844 0.03125-0.16016 0.17188-0.17188 0.32812-0.12891 0.33203-0.050781 0.33984-0.28125 0.80859-0.027344 0.19922v0.26172l0.070313 0.19922 0.058594 0.37891 0.070312 0.19141 0.050781 0.50781 0.078125 0.050781 0.13281 0.10938v0.13281l0.30859 0.70703 0.12109 0.52344 0.5 0.86719 0.35938 0.5 0.058594 0.10938 0.21875 0.13281 0.33203 0.30859 0.57031 0.78125v0.089844l-0.15234 0.21094v0.13672l0.15234 0.3125 0.03125 0.14844-0.023438 0.070312 0.44141 0.58984 0.35156 0.82031 0.57031 0.73047 0.10938 0.21875 0.16016 0.60938 0.039062 0.75-0.058594 0.40234 0.19922 0.80078-0.16016-0.03125-0.16016 0.37891-0.019531 0.22266 0.10937 0.4375-0.019531 0.070312-0.17969 0.33203-0.8125 0.30859-0.21875 0.019532-0.14844 0.089843-0.26953-0.050781-0.070313-0.089844 0.019532-0.089844 0.070312-0.039062h0.046875l0.089844 0.039062 0.11328-0.039062-0.03125-0.12891-0.14844-0.070313h-0.089844l-0.24219-0.17969-0.55078-0.67969-0.19922-0.11328-0.48828-0.10938-0.089844-0.058594-0.37109-0.98047-0.21875-0.078126-0.20312-0.13281-0.16016-0.35938-0.019532-0.16797-0.10938-0.29297h-0.14844l-0.019532 0.17187-0.050781 0.007813-0.5-0.30859-0.3125-0.69141-0.19922-0.17969-0.12891-0.14844v-0.17969l0.10938-0.058593 0.12891-0.38281 0.089843-0.14844 0.089844-0.16016 0.023437-0.14844-0.089843-0.070313-0.050781 0.027344-0.039063 0.17188h-0.09375l-0.14844-0.3125-0.19922 0.03125-0.019531 0.058594 0.089843 0.33203 0.10938 0.089844-0.10938 0.19922-0.33984-0.23828-0.082032-0.16016-0.019531-0.5 0.15234-0.60156 0.058593-0.58984-0.14844-0.50781 0.039063-0.14062-0.10156-0.082032-0.33984-0.50781-0.44141 0.019531-0.16797-0.15234-0.070312-0.16016-0.57812-0.41797-0.21094-0.30859-0.23047-0.19141-0.019531-0.12891-0.94141-0.47266-0.62109 0.070312-0.10938 0.26172 0.0625 0.089844v0.089843h-0.39062l-0.58203 0.48047-0.25781 0.019531-0.03125 0.089844-0.71875 0.19922-0.10938-0.039063-0.023437-0.10937 0.042969-0.089844 0.039062 0.089844 0.070313 0.078124 0.039062-0.097656 0.019531-0.12109-0.039062-0.14844-0.51172-0.39062-0.039062-0.070312 0.089843-0.050782-0.019531-0.039062-0.050781-0.042969-0.23828-0.066406-0.089844-0.11328-0.089844 0.070312 0.019531 0.13281-0.10937-0.023437-0.42188-0.21875-0.39062-0.14062-0.39844-0.039062-0.070312-0.039063 0.16016-0.14062v-0.070312h-0.12891l-0.92969 0.30859-0.24219 0.011719-0.16016 0.078125-0.039062-0.039063 0.19922-0.16016 0.019532-0.078125-0.089844-0.019531-0.058594 0.039062h-0.10938l-0.12109-0.039062-0.039063 0.097656-0.10938 0.26953-0.089844 0.070312-0.30078 0.10156-0.050781-0.039062v-0.15234l-0.050782 0.019532-0.23828 0.26172-0.17188 0.019532-0.19922-0.019532-0.21875-0.30859-0.089844-0.28125 0.019531-0.12891-0.19922-0.33984-0.13281 0.33984-0.058594 0.5-0.070312 0.13672-0.30859-0.10938-0.10938 0.082031-0.089844 0.070313-0.070313 0.039062-0.21094-0.058594-0.050781-0.089843-0.30859 0.10938-0.22266-0.070313-0.89844 0.26953-0.37891 0.32813-0.26172-0.019532-0.53125-0.10938-0.46875-0.21875-0.12891-0.019531-0.12891 0.078125-0.35156 0.3125-0.019531 0.15625 0.14844 0.19141 0.17969 0.050781 0.41016-0.03125 0.22266-0.14844 0.13672-0.070313h0.24219l0.10938-0.019531 0.019531 0.089844-0.058594 0.089844-0.14062 0.12891 0.03125 0.14062 0.14844 0.078125 0.10938 0.03125 0.089843-0.089844 0.17188-0.28906 0.39844-0.16016 0.14062-0.082031h0.10156l0.089844 0.13281-0.0625 0.16797 0.0625 0.089844-0.019531 0.12109-0.18359 0.12891-0.29688 0.39062-0.3125 0.21875-0.019531 0.22266 0.10938 0.16016 0.41016 0.23828 0.69141 0.26953 0.089844 0.13281-0.070312 0.16797-0.14844 0.03125-0.53125 0.23828-0.050781-0.4375-0.30859-0.15234-0.60938-0.23047-0.070312-0.19922-0.10938-0.078126-0.16016 0.089844-0.10156 0.41797 0.058594 0.0625 0.019531 0.089844-0.30859 0.21875-0.12891-0.039063-0.17188-0.23047-0.089844-0.019532-0.19922 0.070313-0.089844-0.089844-0.089844 0.019531-0.28125 0.28906-0.30859 0.019531-0.10938-0.070312-0.33203-0.078126-0.48828-0.60156-0.26953-0.058594-0.28125-0.12109-0.10938-0.19141h-0.070312l-0.019531-0.027344-0.039063-0.042968 0.039063-0.10938-0.12891-0.039063-0.070312 0.039063-0.22266-0.039063-0.058594-0.03125-0.03125-0.14844h-0.12891l-0.37891 0.34766 0.17969 0.20312-0.082031 0.070312-0.59766 0.019532-1.0391-0.17969-0.61328-0.24219-1.3672 0.19922 0.019532 0.0625-0.019532 0.007812-0.49219 0.0625-0.83984 0.35938-0.078125-0.10156-0.42188 0.050782-0.03125-0.089844 0.050781-0.28906h-0.070312l-0.36719 0.14062-0.050781 0.25781 0.23828 0.33203-0.019531 0.070313-0.55078 0.47656-0.058594 0.29297-1.1914 0.76953-0.70703 0.21875-0.089843 0.070313h-0.070313l-0.082031-0.12891 0.0625-0.050782-0.042969-0.039062-0.12891 0.039062-0.070312 0.089844-0.46094 0.12891v0.10938l0.26172 0.14062 0.039062 0.0625-0.019531 0.089844-0.058594 0.019531-0.49219 0.12891-0.089844-0.019532-0.039063-0.039062-0.089843 0.019531-0.039063 0.070313v0.25781l-0.019531 0.070312-0.09375 0.039063h-0.10938l-0.10938-0.058594-0.070313 0.089844-0.089843-0.007813-0.078125-0.042968-0.070313 0.15234 0.16797 0.11719-0.078125 0.26172-0.050781 0.082031-0.28906 0.20703-0.21094-0.14062-0.14062 0.18359 0.050781 0.28906 0.14844 0.058593-0.17969 0.60156-0.29688 0.17969-0.03125 0.039063v0.058594l0.03125 0.03125 0.058594 0.019531 0.050781 0.039062 0.039062 0.22266-0.21875 0.64844 0.14844 0.44141 0.28906 1.0977 0.19922 0.24219-0.039062 0.070313 0.21094 0.078124v0.12109l-0.082031 0.078125-0.19922-0.058593-0.21875 0.28125-0.23828-0.10938-0.47266-0.33203-0.17969-0.019531-0.87891-0.070312-0.66016-0.41797-0.44141-0.15234-0.36719-0.21875-0.33203-0.039063-0.03125-0.25-0.48047-0.92187-0.13672-0.17969-0.0625-0.55078-0.14844-0.17969 0.039062-0.5-0.050781-0.12109-0.1875-0.21875-0.13281-0.078126-0.44922-0.49219-0.058594-0.17969-0.66016-0.75-0.089844-0.30078-0.60156-1.4375-0.019531-0.15234-0.19922-0.30859-0.39844-0.35156-0.24219-0.32812-0.17969-0.10938-0.078125-0.011718-0.03125-0.10156-0.082031-0.027344-0.089844-0.24219-0.41797-0.23828-0.17969 0.070313-0.33203-0.089844-0.14844-0.070312-0.53125-0.070313-0.16016-0.10938-0.1875-0.082031-0.089844 0.10938-0.050781 0.15234-0.082032 0.019531-0.32031-0.089844-0.14844 0.070313-0.17969 0.28906-0.41016 0.92188-0.16016 0.12891-0.19922 0.25-0.19141 0.089844-0.25-0.03125-0.92969-0.58984-1.3789-1-0.33203-0.53906-0.050781-0.21094 0.023438-0.75781-0.20312-0.32031-0.078125-0.10938 0.019531-0.21094-0.050781-0.16016-0.078125-0.12891-0.91016-0.73047-1.082-1.3008-0.36719-0.24219-0.14062-0.32812-0.089844-0.23047-0.37109-0.23828-3.2188-0.40234-0.13281 1.0195-1.6992-0.17969-3.9688-0.66016-6.8008-3.918 0.14062-0.53906-4.5195-0.44141-0.03125-0.082031-0.058594-0.21875 0.058594-0.12109 0.03125-0.019531-0.050782-0.078125h-0.039062l-0.070313-0.19922 0.019531-0.070312-0.019531-0.75-0.39062-0.82031-0.21094-0.22266-0.21094-0.34766-0.4375-0.40234-0.28906 0.011719-0.14062-0.16016 0.089844-0.21875-0.082032-0.15234 0.019532-0.11719-0.16016-0.19141-0.45703-0.050781-0.26953-0.10938-0.33203-0.28906-0.19922-0.51953-0.30078-0.22266-0.28906-0.070313-0.83984-0.37891h-0.28125l-0.33984-0.23828-0.21875-0.19922v-0.19141l0.11719-0.16016 0.082031-0.39844 0.050782-0.26172 0.058593-0.10938-0.078125-0.28906-0.21094-0.11328-0.019531-0.25781 0.050781-0.070313h0.058593l0.007813-0.24219-0.20703-0.17969-0.57031-1.0078-0.039062-0.26953-0.11328-0.22266-0.027344-0.21875-0.41016-0.58984 0.039062-0.57812 0.10938-0.11328 0.10938-0.039063 0.20312-0.21875 0.039063-0.37891-0.13281-0.15234-0.28906-0.12891-0.30078-0.25-0.10938-0.28125 0.019532-0.77734 0.0625-0.11328-0.039063-0.19922 0.089844-0.039063 0.058593-0.37109 0.070313-0.027344 0.070313 0.13672v0.30078l0.039062 0.089844 0.26953 0.19922 0.058594-0.070313 0.023437-0.21875-0.13281-0.41797-0.039062-0.26172 0.039062-0.32813-0.058594-0.023437-0.19922 0.20312v0.12891l-0.070313 0.10938-0.26172-0.089843-0.26953-0.37891-0.25781-0.10938 0.12891-0.26172v-0.83984l-0.35938-0.39844-0.15234-0.32031-0.27734-0.71094 0.14844-0.23828-0.050782-0.22266-0.039062-0.17969 0.14844-0.50781 0.16016-0.26172 0.0625-0.12891-0.0625-0.49219-0.21875-0.48828-0.019532-0.12891-0.050781-0.13281-0.10938-0.10938-0.082031-0.21875-0.027344-0.28906 0.050781-0.089844-0.023437-0.24219 0.24219-0.39063 0.66016-0.73047v-0.13672l0.058593-0.30078 0.14063-0.12109 0.17187-0.28125 0.046876-0.64062-0.12891-0.28906 0.12891-0.30859 0.089843-0.12891-0.089843-0.11328-0.12891-0.47656 0.10938-0.23047v-0.20312l0.15234-0.36719-0.070312-0.73047 0.10937-0.17188 0.14063-0.070313 0.089843-0.12891 0.097657-0.23828 0.089843-0.089844 0.03125-0.33203 0.082031-0.019531 0.4375-0.53125 0.22266-0.48828 0.37891-0.71094 0.41797-1.3008 0.3125-0.54688 0.27734-0.8125 0.33203-1 0.12109-0.34766 0.058594-0.3125v-0.089844l0.16016-0.058593 0.19141 0.058593 0.10938-0.039062-0.042969-0.039062-0.28906-0.17969-0.097656-0.019531-0.050781-0.011719v-0.10156l0.070313-0.26953 0.058593-0.12891v-0.17969l0.050781-0.019531 0.039063 0.019531 0.019531 0.16016-0.019531 0.089843-0.019531 0.058594 0.019531 0.070313 0.21875-0.19922-0.019531-0.070312v-0.10938l0.089844-0.10937-0.070313-0.15234-0.12891-0.027344-0.019531-0.35156 0.058593-0.039063 0.13281 0.039063 0.027344-0.058594 0.24219-0.050782-0.16016-0.14844v-0.03125l-0.058594-0.0625-0.16016 0.11328v-0.40234l0.046875-0.30078-0.039063-0.20703-0.007812-0.21094 0.046875-0.46875 0.042968-0.20312-0.20312-0.63672 0.011718-0.44141 0.078125-0.24219 0.050781-0.32812 1.1523 0.80859 0.60938 0.33203 0.46875 0.14062 0.28125 0.16797h0.23828l0.089844 0.050781 0.089844 0.14844 0.042969 0.5625-0.042969 0.12891-0.17969 0.12891-0.078124 0.26172v0.19922l0.019531 0.10937-0.019531 0.10938-0.050782 0.089843v0.089844l0.10938 0.09375 0.21875-0.11328 0.14062-0.50781 0.10156-0.10938 0.089843-0.24219 0.30859-0.30859 0.019532-0.12891-0.12891-0.45312-0.23828-0.63672-0.019531-0.11328 0.078125-0.039063 0.12109 0.039063 0.14844-0.29688-0.019531-0.33203h-0.19922l-0.019531-0.21875-0.019532-0.42188 2.457 0.67969 2.3203 0.62109 3.8398 0.94922 1.4805 0.30078 1.7422 0.28906 4.6484 0.79297 4.75 0.79688 7.4297 0.76953 3.1523 0.22266 2.2266 0.16016 5.25 0.14844 3.1602-0.019531 0.019531-0.53125 0.042969-0.30859h0.23828l0.33203 0.12891 0.027344 0.51172 0.089844 0.34766-0.007813 0.3125 0.33984 0.25 0.12891-0.03125 0.24219 0.03125 0.10938 0.12891 0.26953-0.03125 0.30078 0.050781 0.070313 0.10938v0.089844l0.45703-0.019532 0.14062-0.17969 0.67969-0.039063 0.44141 0.12891h0.10938l-0.070313 0.12891 0.14062 0.13281 0.078125-0.039063 0.070313 0.078125 0.070312 0.30859 0.17188 0.089844 0.17969-0.21875 0.089843-0.058594 0.17969 0.058594 0.10938 0.21875 0.37109 0.089843 0.10938 0.15234 0.16016 0.12109h0.23828l0.24219-0.050781 0.59766-0.42188 0.09375 0.050782 0.16797 0.19922 0.91016-0.007812 0.14844 0.027344 0.11328 0.082031 0.23828 0.16016 0.19922-0.089843 0.40234-0.019532-0.24219 0.21875-0.53125 0.30859-0.28906 0.070312-0.21875 0.10156-0.24219 0.23047-0.46875 0.19922-0.19922 0.16797-0.76953 0.83984-1.1016 1.0117 0.16016 0.089844 0.22266 0.039062 0.27734-0.019531 0.44141-0.25781 0.82031-0.42188 0.14844-0.019531 0.050781 0.089844v0.19141l-0.070312 0.10938v0.10938l-0.089844 0.32031 0.30859-0.14062h0.16016l0.20312 0.17969 0.1875-0.039063 0.33203-0.10156 0.16016-0.10938 0.34766-0.21094 0.070312-0.16016 0.15234-0.019531 0.61719-0.23828 0.44141-0.23047 0.50781-0.53906 0.18359-0.03125 0.42969-0.48047 0.28906-0.14062 0.46875-0.097656 0.12891 0.039062 0.023438 0.058594-0.26172 0.17969-0.070312 0.023438-0.10938 0.21875-0.35156 0.37891-0.16016 0.15234-0.089844 0.12891-0.078125 0.32031 0.078125 0.21875 0.050781-0.12109 0.30078-0.23828 0.19922 0.019532 0.12109-0.039063 0.64062 0.26953 0.51953 0.55078 0.39844-0.050782 0.19922 0.039063 0.15234 0.070313h0.12891l0.050781-0.019532 0.14844 0.058594v0.070312l0.089844-0.070312 0.070312-0.14844 0.46094-0.33203 1.4609-0.36719 0.39062-0.22266 0.17969-0.046876 0.070312 0.089844-0.11328 0.19922v0.12891l0.19141 0.35156 0.10937 0.027344 0.070313-0.046876 0.24219 0.019532 0.10938-0.0625 0.44922-0.046875 0.19922 0.12891 0.21094 0.35938 0.14063 0.14844 0.34766 0.16016 0.38281-0.089844h0.097656l0.089844 0.089844 0.019532 0.13281-0.14844 0.14844-0.23828 0.019531-0.13281-0.019531-0.027344-0.078125h-0.082031l-0.23047 0.12891-0.16797-0.050781-0.15234-0.019532-0.39844 0.089844-0.24219-0.070312-0.089844 0.070312 0.0625 0.21875-0.0625 0.070313-0.10938-0.027344-0.23828-0.22266-0.60156-0.078125-0.12891 0.039062-0.14062-0.070312-0.41797 0.30859h-0.10156l-0.16016 0.089843-0.058594 0.070313-0.089844 0.042968-0.23047-0.0625-0.26172 0.0625-0.019531 0.19922-0.050782 0.10938-0.51953 0.46094-0.089844-0.042969-0.050781-0.066406 0.22266-0.29297v-0.14844l-0.30078 0.019532-0.10938 0.26953-0.10156 0.10938-0.10938-0.12891-0.039062-0.25-0.0625 0.03125-0.046875 0.32812-0.18359 0.33203-0.10938 0.32812-0.10938 0.19922-0.23828 0.37109v0.25l-0.042969 0.10156-0.37891 0.37891-0.21875 0.44141-0.070313 0.30859-0.039062 0.14844 0.070312 0.050781 0.25781-0.12891 0.26953-0.51172 0.30078-0.23828 0.14062-0.070313 0.039063-0.12891 0.12891-0.10938 0.070313-0.14062-0.019532-0.17188 0.019532-0.12891 0.070312-0.050781 0.082032-0.14844 0.070312-0.070312 0.089844-0.019532 0.058594 0.089844-0.039063 0.29688-0.24219 0.58203-0.10938 0.14844-0.050781 0.22266v0.11719l-0.21875 0.48047v0.42188l-0.019531 0.28906-0.21875 0.21875-0.0625 0.15234 0.082031 0.32812 0.019531 0.57031-0.10156 0.12109-0.17969 0.58984 0.10938 0.85938 0.24219 0.58203-0.0625 0.097656 0.042969 0.12109-0.019532 0.097656 0.019532 0.25v0.42188l0.16016 0.35156 0.16797 0.14844 0.070312 0.14062 0.10938 0.50781 0.082032 0.15234 0.089843 0.058594 0.23047 0.17969 0.32812-0.058593 0.15234-0.070313 0.26953-0.10938 0.10938-0.089843 0.097656-0.089844 0.25-0.22266 0.29297-0.67969 0.12891-0.34766 0.089844-0.33984 0.058594-0.5 0.070312-0.070312v-0.070313l-0.10938-0.10938v-0.48047l-0.23828-0.57031-0.32031-0.69141-0.13281-0.27734 0.09375-0.3125-0.17188-0.50781-0.03125-0.20312 0.13281-0.17969 0.13672-0.30859 0.042969-0.23828 0.019531-0.42188 0.019531-0.37109 0.17969-0.21875 0.03125-0.12891 0.078125-0.16016 0.21875-0.17969h0.13281l0.070312-0.13281 0.039062-0.21875 0.10938-0.17969 0.089843-0.058594 0.019531 0.070313-0.039062 0.097656 0.089844 0.25-0.089844 0.24219 0.039062 0.19922 0.19922-0.10938 0.14062-0.26953-0.027344-0.24219-0.042968-0.25781 0.13281-0.24219 0.12891-0.16016 0.10938-0.070312 0.14062-0.078125 0.070313-0.03125-0.03125-0.10938h-0.070313l-0.039062-0.10938v-0.26172l0.17969-0.32812 0.17969-0.070312 0.15234-0.13281 0.23828 0.17188 0.32812 0.10938 0.35156 0.070313 0.14062 0.17969 0.44141 0.070313 0.59766 0.24219 0.21094 0.10938 0.23047 0.41797-0.03125 0.0625-0.19922 0.066406-0.039062 0.15234 0.046875 0.10938 0.19141 0.21875 0.089844 0.16016 0.089844 0.29297v0.58984l-0.12891 0.28906-0.14062 0.078125-0.039063 0.16016-0.019531 0.13281-0.070313 0.16016-0.30078 0.1875-0.10156 0.16016-0.078126 0.37109 0.089844 0.19922 0.078125 0.070312 0.23047 0.089844 0.0625 0.039062h0.046875l0.61328-0.89844 0.23828-0.24219 0.19922-0.11719 0.51172 0.16016 0.50781 1.3398 0.070312 0.55859 0.10938 0.26172-0.027344 0.39844 0.050781 0.30859-0.03125 0.17188-0.058593 0.070312-0.11328 0.070313-0.046876-0.011719-0.082031-0.16797-0.16016 0.14844v0.16016l-0.058594 0.058594v0.3125l-0.28906 0.23828-0.089844 0.28906 0.019531 0.36328-0.11328 0.14844-0.27734 0.55078-0.03125 0.10937v0.089844l0.25-0.050781 0.10938 0.03125 0.55078 0.1875 0.26172 0.03125 0.070313 0.019531-0.089844 0.15234 0.12891 0.027344 0.089844-0.046875 0.32812 0.10938 0.16016 0.027344 0.42188-0.35938 0.16797-0.039062h0.29297l0.14844 0.019531 0.14062-0.089843 0.51953-0.55078 0.14063-0.12891 0.39062-0.23828 0.86719-0.43359 0.15234-0.097656 0.32812-0.28906 0.089843-0.24219h0.070313l0.0625 0.082031 0.066406-0.042969 0.41016-0.37891 0.27344-0.21094 0.70703-0.72656 0.13281-0.33203 0.12891-0.089844 0.050781-0.14062-0.03125-0.1875-0.058594-0.050781-0.33984-0.39062v-0.19922l0.089843-0.26953 0.22656-0.17188 0.52344-0.19922 0.46875-0.089844 0.46094-0.050781 0.26953 0.050781 0.30078 0.10938 0.87891-0.26172 0.37891-0.11719 0.51172-0.55078 0.34766-0.15234 0.042969-0.32812-0.13281-0.19922-0.058594-0.17969 0.10938-0.13281-0.019532-0.10938-0.10938-0.070312-0.14062 0.019531-0.058594-0.039063-0.070312-0.21875 0.046875-0.10937 0.66016-0.66016 0.089844-0.28906-0.046875-0.11328 0.089844-0.12891 0.52734-0.73047 0.53125-0.55078 0.17187-0.089843 0.089844-0.039063 0.039063 0.070313 2.1914-0.53906 2.9766-0.75 0.082031-0.44141-0.10938-0.14844 0.027344-0.050781h0.13281l0.058594-0.14844 0.10938 0.039063 0.12109-0.019531 0.089844-0.089844 0.16797-0.15234 0.13281 0.050782 0.089843 0.019531 0.050781-0.12891-0.011718-0.19922h0.16016l0.019531-0.03125-0.10938-0.28125 0.039063-0.13672 0.28906-0.39062v-0.22266l0.11328-0.25-0.20312-0.80859 0.070312-0.17969 0.089844-0.089843 0.070312-0.15234-0.007812-0.21875-0.10938-0.14844 0.027343-0.28906 0.58984-1.9922 0.26953-0.10938h0.11328l0.078125 0.10938-0.039063 0.25 0.14844 0.19141 0.10938-0.042969 0.36328-0.28906 0.25781-0.12891h0.089843l0.050781-0.12891 0.058594-0.10938h0.17969l0.17969 0.019531 0.72266 0.4375 0.80078 2.5625 0.019531 0.089844 0.10938 0.34766 0.070313 0.050782h0.14844l0.26172 0.10156 0.050781-0.0625h0.10938l0.058594 0.070312 0.03125 0.10938-0.050782 0.082031 0.14063 0.57812 0.16797 0.0625 0.14062-0.042969 0.058594-0.066406 0.11328-0.023438 0.17969 0.089844 0.14844 0.29297v0.12891l-0.058593 0.039062-0.050782 0.16016 0.089844 0.039062 0.019531-0.019531 0.15234 0.070312z"/>
  <path d="m49.879 74.23-1.0586 1.3008-0.16016-0.070312 0.17969-0.28906 0.050781-0.082031 0.078125-0.12891z"/>
 </g>
</svg>
