<?xml version="1.0" encoding="UTF-8"?>
<svg width="100pt" height="100pt" version="1.1" viewBox="0 0 100 100" xmlns="http://www.w3.org/2000/svg">
 <path d="m32.824 7.5078c-3.8516 0-7.0312 3.1602-7.0312 7.0117 0 2.9727 1.9062 5.5273 4.5391 6.5469v10.93h-1.1406c-0.81641-0.003906-1.5977 0.31641-2.1758 0.89453-0.57812 0.57422-0.90234 1.3555-0.90625 2.1719v3.8594l-5.043-0.003906c-1.0195-2.6289-3.5742-4.5195-6.5469-4.5195-3.8516 0-7.0117 3.1602-7.0117 7.0117 0 3.8516 3.1602 7.0312 7.0117 7.0312 2.9688 0 5.5195-1.8945 6.543-4.5195h5.0469v12.164l-5.0469-0.003907c-1.0234-2.6289-3.5742-4.5195-6.543-4.5195-3.8516 0-7.0117 3.1797-7.0117 7.0312s3.1602 7.0117 7.0117 7.0117c2.9727 0 5.5273-1.8906 6.5469-4.5234h5.043v3.8594-0.003906c0.007813 1.6992 1.3867 3.0664 3.082 3.0625h1.1406v10.934c-2.6367 1.0195-4.5391 3.5742-4.5391 6.5469 0 3.8516 3.1797 7.0117 7.0312 7.0117 3.8516 0 7.0312-3.1602 7.0312-7.0117 0-2.9648-1.8906-5.5195-4.5156-6.543v-10.938h12.156v10.938c-2.6289 1.0234-4.5234 3.5742-4.5234 6.543 0 3.8516 3.1797 7.0117 7.0312 7.0117 3.8516 0 7.0117-3.1602 7.0117-7.0117 0-2.9727-1.8906-5.5273-4.5195-6.5469v-10.934h12.164v10.938c-2.6289 1.0234-4.5195 3.5742-4.5195 6.543 0 3.8516 3.1797 7.0117 7.0312 7.0117s7.0312-3.1602 7.0312-7.0117c0-2.9727-1.9023-5.5312-4.543-6.5469v-10.934h1.1484c1.6953 0.003906 3.0742-1.3633 3.082-3.0625v-3.8594h5.043c1.0195 2.6289 3.5703 4.5234 6.543 4.5234 3.8516 0 7.0156-3.1602 7.0156-7.0117 0-3.8516-3.1641-7.0312-7.0156-7.0312-2.9688 0-5.5156 1.8945-6.5391 4.5195l-5.0469 0.003906v-12.164h5.0469c1.0234 2.6289 3.5703 4.5195 6.5391 4.5195 3.8516 0 7.0156-3.1797 7.0156-7.0312s-3.1641-7.0117-7.0156-7.0117c-2.9727 0-5.5234 1.8906-6.543 4.5234h-5.043v-3.8555c-0.003906-0.81641-0.32812-1.5977-0.90625-2.1719-0.57812-0.57812-1.3594-0.89844-2.1758-0.89453h-1.1484v-10.93c2.6367-1.0195 4.543-3.5742 4.543-6.5469 0-3.8516-3.1797-7.0117-7.0312-7.0117s-7.0312 3.1602-7.0312 7.0117c0 2.9688 1.8945 5.5195 4.5195 6.543v10.934h-12.164v-10.93c2.6289-1.0195 4.5195-3.5742 4.5195-6.5469 0-3.8516-3.1602-7.0117-7.0117-7.0117-3.8516 0-7.0312 3.1602-7.0312 7.0117 0 2.9688 1.8945 5.5195 4.5234 6.543v10.934h-12.156v-10.934c2.625-1.0234 4.5156-3.5781 4.5156-6.543 0-3.8516-3.1797-7.0117-7.0312-7.0117zm0 5c1.1484 0 2.0312 0.86328 2.0312 2.0117 0 1.1484-0.88281 2.0312-2.0312 2.0312-1.1484 0-2.0273-0.88281-2.0273-2.0312 0-1.1484 0.87891-2.0117 2.0273-2.0117zm17.184 0c1.1484 0 2.0117 0.86328 2.0117 2.0117 0 1.1484-0.86328 2.0312-2.0117 2.0312-1.1484 0-2.0312-0.88281-2.0312-2.0312 0-1.1484 0.88281-2.0117 2.0312-2.0117zm17.164 0c1.1484 0 2.0312 0.86328 2.0312 2.0117 0 1.1484-0.88281 2.0312-2.0312 2.0312s-2.0312-0.88281-2.0312-2.0312c0-1.1484 0.88281-2.0117 2.0312-2.0117zm-34.918 25.637h35.488v23.715h-35.488zm-17.734 1.2539c1.1484 0 2.0312 0.86328 2.0312 2.0117 0 1.1484-0.88281 2.0312-2.0312 2.0312-1.1484 0-2.0117-0.88281-2.0117-2.0312 0-1.1484 0.86328-2.0117 2.0117-2.0117zm70.957 0c1.1484 0 2.0312 0.86328 2.0312 2.0117 0 1.1484-0.88281 2.0312-2.0312 2.0312-1.1484 0-2.0273-0.88281-2.0273-2.0312 0-1.1484 0.87891-2.0117 2.0273-2.0117zm-47.52 1.5859c-0.81641-0.003906-1.6016 0.32031-2.1797 0.89844-0.58203 0.57813-0.90234 1.3633-0.90234 2.1836v11.871-0.003906c0 0.82031 0.32031 1.6055 0.90234 2.1836 0.57812 0.57812 1.3633 0.90234 2.1797 0.89844h24.082c0.81641 0.003906 1.6055-0.32031 2.1836-0.89844 0.57812-0.57813 0.90234-1.3633 0.90234-2.1836v-11.867c0-0.82031-0.32422-1.6055-0.90234-2.1836-0.57812-0.57812-1.3672-0.90234-2.1836-0.89844zm3.0664 6.1484h17.953v5.7383l-17.953-0.003906zm-26.504 9.4297c1.1484 0 2.0312 0.88281 2.0312 2.0312s-0.88281 2.0312-2.0312 2.0312c-1.1484 0-2.0117-0.88281-2.0117-2.0312s0.86328-2.0312 2.0117-2.0312zm70.957 0c1.1484 0 2.0312 0.88281 2.0312 2.0312s-0.88281 2.0312-2.0312 2.0312c-1.1484 0-2.0273-0.88281-2.0273-2.0312s0.87891-2.0312 2.0273-2.0312zm-52.652 26.891c1.1484 0 2.0312 0.88281 2.0312 2.0312s-0.88281 2.0273-2.0312 2.0273c-1.1484 0-2.0273-0.875-2.0273-2.0273 0-1.1484 0.87891-2.0312 2.0273-2.0312zm17.184 0c1.1484 0 2.0117 0.88281 2.0117 2.0312s-0.86328 2.0273-2.0117 2.0273c-1.1484 0-2.0312-0.875-2.0312-2.0273 0-1.1484 0.88281-2.0312 2.0312-2.0312zm17.164 0c1.1484 0 2.0312 0.88281 2.0312 2.0312s-0.88281 2.0273-2.0312 2.0273-2.0312-0.875-2.0312-2.0273c0-1.1484 0.88281-2.0312 2.0312-2.0312z" fill="#00449e"/>
</svg>
