<?xml version="1.0" encoding="UTF-8"?>
<svg width="1200pt" height="1200pt" version="1.1" viewBox="0 0 1200 1200" xmlns="http://www.w3.org/2000/svg">
 <path d="m372 672c13.199-2.3984 22.801-14.398 20.398-27.602-2.3984-13.199-14.398-22.801-27.602-20.398-4.8008 1.1992-9.6016 1.1992-13.199 1.1992v-58.801c33.602-4.8008 63.602-18 90-37.199l42 42c-3.6016 2.3984-7.1992 6-10.801 8.3984-10.801 8.3984-13.199 22.801-6 34.801 4.8008 7.1992 12 9.6016 20.398 9.6016 4.8008 0 9.6016-1.1992 14.398-4.8008 12-8.3984 24-19.199 34.801-30s21.602-22.801 30-34.801c8.3984-10.801 6-26.398-6-34.801-10.801-8.3984-26.398-6-34.801 6-2.3984 3.6016-6 7.1992-8.3984 10.801l-42-42c19.199-25.199 32.398-56.398 37.199-90h58.801c0 4.8008-1.1992 9.6016-1.1992 13.199-3.5977 14.402 6.0039 26.402 19.203 28.801h3.6016c12 0 22.801-8.3984 24-20.398 2.3984-14.398 3.6016-30 3.6016-45.602 0-15.602-1.1992-31.199-3.6016-45.602-2.3984-13.199-14.398-22.801-27.602-20.398-13.199 2.3984-22.801 14.398-20.398 28.801 1.1992 4.8008 1.1992 9.6016 1.1992 13.199h-58.801c-4.8008-33.602-18-63.602-37.199-90l42-42c2.3984 3.6016 6 7.1992 8.3984 10.801 4.8008 7.1992 12 9.6016 20.398 9.6016 4.8008 0 9.6016-1.1992 14.398-4.8008 10.801-8.3984 13.199-22.801 6-34.801-8.3984-12-19.199-24-30-34.801-10.801-10.801-22.801-21.602-34.801-30-10.801-8.3984-26.398-4.8008-34.801 6-8.3984 10.801-6 26.398 6 34.801 3.6016 2.3984 7.1992 6 10.801 8.3984l-42 42c-25.199-19.199-56.398-32.398-90-37.199v-58.801c4.8008 0 9.6016 1.1992 13.199 1.1992h3.6016c12 0 22.801-8.3984 24-20.398 2.3984-13.199-7.1992-26.398-20.398-27.602-30-4.8008-62.398-4.8008-92.398 0-13.199 2.3984-22.801 14.398-20.398 27.602 2.3984 13.199 14.398 22.801 27.602 20.398 4.8008-1.1992 9.6016-1.1992 13.199-1.1992v58.801c-33.602 4.8008-63.602 18-90 37.199l-42-42c3.6016-2.3984 7.1992-6 10.801-8.3984 10.801-8.3984 13.199-22.801 6-34.801-8.3984-10.801-22.801-13.199-34.801-6-12 8.3984-24 19.199-34.801 30-10.801 10.801-21.602 22.801-30 34.801-8.3984 10.801-6 26.398 6 34.801 4.8008 3.6016 9.6016 4.8008 14.398 4.8008 7.1992 0 15.602-3.6016 20.398-10.801 2.3984-3.6016 6-7.1992 8.3984-10.801l42 42c-19.199 25.199-32.398 56.398-37.199 90h-57.598c0-4.8008 1.1992-9.6016 1.1992-13.199 2.3984-13.199-7.1992-26.398-20.398-27.602-13.199-2.3984-25.199 6-27.598 19.203-2.3984 14.398-3.6016 30-3.6016 45.602s1.1992 31.199 3.6016 45.602c2.3984 12 12 20.398 24 20.398h3.6016c14.398-1.2031 22.797-13.203 20.398-26.402-1.1992-4.8008-1.1992-9.6016-1.1992-13.199h58.801c4.8008 33.602 18 63.602 37.199 90l-42 42c-2.3984-3.6016-6-7.1992-8.3984-10.801-8.3984-10.801-22.801-13.199-34.801-6-10.801 8.3984-13.199 22.801-6 34.801 8.3984 12 19.199 24 30 34.801 10.801 10.801 22.801 21.602 34.801 30 4.8008 3.6016 9.6016 4.8008 14.398 4.8008 7.1992 0 15.602-3.6016 20.398-10.801 8.3984-10.801 6-26.398-6-34.801-3.6016-2.3984-7.1992-6-10.801-8.3984l42-42c25.199 19.199 56.398 32.398 90 37.199v58.801c-4.8008 0-9.6016-1.1992-13.199-1.1992-13.199-2.3984-26.398 7.1992-27.602 20.398-2.3984 13.199 7.1992 26.398 20.398 27.602 14.398 2.3984 30 3.6016 45.602 3.6016 15.602-0.003907 31.199-1.207 46.801-3.6055zm31.199-339.6c24 0 42 19.199 42 42 0 22.801-19.199 42-42 42s-42-19.199-42-42c0-22.797 19.199-42 42-42zm-120-61.199c18 0 33.602 14.398 33.602 33.602 0 18-14.398 33.602-33.602 33.602-18 0-33.602-14.398-33.602-33.602 0.003906-18 15.602-33.602 33.602-33.602zm-4.8008 208.8c-20.398 0-38.398-16.801-38.398-38.398 0-21.602 16.801-38.398 38.398-38.398 20.398 0 38.398 16.801 38.398 38.398 0.003906 21.598-16.797 38.398-38.398 38.398z" fill="#fff"/>
 <path d="m904.8 301.2c63.602 8.3984 121.2-37.199 128.4-100.8 8.4023-62.398-37.199-120-99.598-128.4-63.602-7.1992-121.2 37.199-129.6 100.8-7.1992 62.398 37.199 121.2 100.8 128.4z" fill="#fff"/>
 <path d="m1168.8 644.4c-49.199-253.2-121.2-307.2-172.8-307.2h-156c-92.398 0-144 166.8-171.6 307.2-4.8008 26.398 12 51.602 38.398 56.398 26.398 4.8008 51.602-12 56.398-38.398 12-61.199 30-123.6 49.199-169.2v175.2l-80.395 391.2c-6 31.199 13.199 61.199 45.602 68.398 3.6016 1.1992 8.3984 1.1992 12 1.1992 26.398 0 50.398-19.199 56.398-46.801l73.199-361.2 73.199 361.2c6 27.602 30 46.801 56.398 46.801 3.6016 0 7.1992 0 12-1.1992 31.199-6 51.602-37.199 45.602-68.398l-79.199-390v-176.4c18 44.398 37.199 106.8 49.199 169.2 4.8008 22.801 25.199 38.398 46.801 38.398 3.6016 0 6 0 9.6016-1.1992 24-4.7969 40.801-29.996 36-55.199z" fill="#fff"/>
 <path d="m566.4 790.8c-10.801-10.801-26.398-10.801-37.199 0s-10.801 26.398 0 37.199l46.801 46.801h-186c-21.602 0-38.398-16.801-38.398-38.398v-81.602c0-14.398-12-26.398-26.398-26.398s-26.398 12-26.398 26.398v81.602c0 50.398 40.801 91.199 91.199 91.199h186l-46.801 46.801c-10.801 10.801-10.801 26.398 0 37.199 4.8008 4.8008 12 7.1992 19.199 7.1992 7.1992 0 13.199-2.3984 19.199-7.1992l91.199-91.199c4.8008-4.8008 7.1992-12 7.1992-19.199s-2.3984-13.199-7.1992-19.199z" fill="#fff"/>
</svg>
