<?xml version="1.0" encoding="UTF-8"?>
<svg width="100pt" height="100pt" version="1.1" viewBox="0 0 100 100" xmlns="http://www.w3.org/2000/svg">
 <g>
  <path d="m49.996 29.508c6.5547 0 11.887-5.332 11.887-11.887 0-6.5547-5.332-11.891-11.887-11.891-6.5547 0-11.891 5.3359-11.891 11.891 0.003906 6.5508 5.3359 11.887 11.891 11.887z"/>
  <path d="m53.137 40.301 5.0156 17.684h13.148l0.87891-16.191c0.089843-1.7109-0.48438-3.3594-1.6328-4.6367-1.1445-1.2773-2.7188-2.0352-4.4297-2.1289-0.11719-0.007813-0.23047-0.011719-0.34766-0.011719h-10.016z"/>
  <path d="m28.691 57.984h13.148l5.0156-17.684-2.6172-5.2773h-10.016c-3.543 0-6.4219 2.8828-6.4219 6.4219 0 0.11719 0.003907 0.23047 0.007813 0.34766z"/>
  <path d="m17.199 59.027c0.089843-0.15625 0.16016-0.32812 0.16016-0.51953v-28.449l5.4961-2.332c0.49219 0.48438 1.168 0.78906 1.9102 0.78906 1.5039 0 2.7305-1.2227 2.7305-2.7305 0-1.5039-1.2266-2.7266-2.7305-2.7266s-2.7266 1.2227-2.7266 2.7266c0 0.007813 0.003907 0.015625 0.003907 0.023438l-6.1328 2.6016c-0.38672 0.16406-0.63672 0.54297-0.63672 0.96094v29.137c0 0.19531 0.066406 0.36328 0.16016 0.51953h-3.5586l2.6602 12.945h13.324c0.22656 0 0.42578 0.14453 0.49219 0.36328l7.0195 21.934h29.246l7.0195-21.934c0.070312-0.21484 0.26953-0.36328 0.49609-0.36328h13.324l2.6641-12.945z"/>
 </g>
</svg>
