<?xml version="1.0" encoding="UTF-8"?>
<svg width="1200pt" height="1200pt" version="1.1" viewBox="0 0 1200 1200" xmlns="http://www.w3.org/2000/svg">
 <path d="m238.69 822.61c-26.625-11.297-52.078-20.531-74.625-41.531s-38.531-54.141-51.375-82.781c-15-45.141-18.469-88.547-26.859-135.84h-0.046875c-10.453-54.328-6.9375-110.39 10.219-162.98 5.3906-16.219-1.3125-29.531 5.2969-45.141 4.3125-10.312 13.781-19.453 10.547-31.547-1.9219-7.3125-8.2969-9-14.531-10.922-6.375-1.3125-11.625-5.8125-14.016-11.859-1.6406-6.1875-0.32812-12.797 3.5625-17.859 3.9844-4.8281 7.0312-10.266 9.1406-16.078 0.98438-6.5625-0.32812-13.266-3.7031-18.984-3.7969-5.3438-8.7188-9.7969-14.438-13.078-2.1562-1.5-4.5938-2.5781-7.1719-3.1406-1.0781-0.046876-2.1562-0.32813-3.1406-0.79688-10.781-4.9219-8.3906-11.297-1.0781-16.781v-0.046874c6.6094-4.2656 13.594-7.9219 20.906-10.922 3.9844-1.5 7.3125-4.3594 9.4688-8.0156 1.2188-4.2188 1.8281-8.5781 1.7812-12.984 1.5-9.1875 7.0781-17.203 15.141-21.844-2.1562-4.3125-4.4531-9.2344-6.6094-13.312-2.1562-4.0781-5.5312-5.1562-6.8438-9.8438-0.65625-5.0625 1.6406-10.078 5.9062-12.938 4.3125-2.6719 8.3438-5.8125 12-9.375 1.875-3.3281 3.5156-6.7969 5.0156-10.312 1.9219-3.375 4.0781-6.375 8.5312-6.1406 4.4531 0.23437 8.8594 5.7656 13.078 6.1406s6.2344-2.0625 8.5312-4.6875 3.4688-5.625 5.8594-8.0625c2.25-2.3438 5.7188-3.0938 8.7656-1.875 2.8594 1.4531 3.375 4.4531 5.0625 6.4688 7.0781 9.2344 12-1.9219 19.312-5.5312 3.5625-2.3906 8.1562-2.625 12-0.70312 4.7812 1.9219 7.9219 8.3906 11.391 12 3.8906 3.2812 8.1562 6.0938 12.703 8.3906 4.6406 2.3906 7.875 6.8438 8.6719 12 1.3125 10.219-6.8438 19.312-7.0781 29.297v-0.046876c0.70312 6.8906 4.3125 13.078 9.9375 17.062 11.016 8.4844 21.562 17.578 31.547 27.234 9.7969 10.641 18.938 21.891 27.375 33.609-0.60938 0.70313-1.2188 1.9219-2.2969 2.0625-1.0781 0.14063 0 0 0 0s1.4531-1.4531 2.2969-2.0625c7.2188 10.688 10.688 24 24 28.688 0 0 0.60938 2.3906 0 2.5312-0.60938 0.14063 0 0 0 0s2.1562-0.60937 2.5312 0c0.375 0.60938 0 0 0 0 0.84375 5.8594 12 12 9.6094 17.156 4.7812-0.60937 6.1406 6.8438 8.3906 10.688 10.219 16.922 22.781 33.609 34.453 50.062-2.1562 6.7031 13.219 7.6875 11.391 14.391 2.3906-0.60938 3.6094 2.3906 5.3906 3.8438v-0.046876c27.047 22.266 61.875 32.719 96.703 29.062 38.062-2.3906 75.375-8.1562 112.22-13.219 39.141-5.3906 76.078-12 114.84-17.625h0.60938-0.84375l16.219-4.2188c19.781-5.0625 39.844-9.8438 60-14.625 12.609-7.7812 25.219-16.312 38.297-23.156h-0.046875c12.844-6.9375 24.141-16.359 33.234-27.75 6.375-7.7812 25.453-14.062 22.312-24.703l28.922-26.391c0.89062-0.09375 1.7812-0.09375 2.625 0 0 0.60938-2.3906 0-2.5312 0 26.391-20.859 68.062-56.531 92.391-72 18.234-11.297 21.609-7.3125 34.312-9.1406 18.703-2.625 18.234 5.3906 25.078 18.141l-2.625 2.0625v-0.60937l2.5312-1.9219c2.7188 6.375 8.2031 11.156 14.906 12.938 10.453 1.7344 19.406 8.4375 24 18-2.2969 2.1094-3.6094 5.1094-3.6094 8.2031 0 3.1406 1.3125 6.1406 3.6094 8.25 2.1562 3.375-4.9219 6.4688-6.375 9.4688s-4.6875 8.3906-2.625 12c2.0625 3.6094 7.7812 3.7031 12 4.9219h5.625c6.7969 0.9375 13.5 2.3906 20.062 4.4531 6.1406 2.3906 6.4688 6.375 2.1562 11.156-6.75 6.6094-15.75 10.406-25.219 10.547-3.7031 1.1719-7.1719 2.9531-10.312 5.2969 1.6875 3.375 4.2188 4.6875 5.8594 8.1562 1.6875 3.4688 5.5312 1.3125 6.6094 6.6094 3.375 16.688-42.844 50.625-53.156 57.234-13.922 9.1406-24.703 24-37.781 16.453 1.5469 3.7031-3.8438 6.9375-5.8594 9.6094l-0.046875-0.046876c3.3281 1.4062 6.7969 2.2969 10.359 2.625 3.5156-0.84375 7.2188-0.09375 10.125 2.1094 2.8594 2.2031 4.6406 5.5781 4.7344 9.1875 0.98438 11.672 0.5625 23.438-1.2188 35.062-0.98438 13.312-10.828 24.234-24 26.625-18 5.0625-18.141 10.781-9.6094 26.625 0 0 2.5312 2.1562 3.375 3.375 11.156 15 10.547 24-5.1562 34.219-5.5312 3.4688-12 13.547-18.141 9.375 1.0781 4.6875-4.6875 12-9.6094 9.2344 0.70312 1.0781-1.0781 3.4688-1.9219 4.0781-0.84375 0.60937-0.84375 0-1.2188 1.2188s-2.625 5.1562-4.0781 4.2188c4.7812 5.3906-2.5312 14.859-1.6875 20.766 1.9219 12 3.2344 14.297-6.4688 23.297l0.046875-0.09375c-6.1875 4.5-9.8906 11.672-9.9375 19.312-0.14062 8.1094-4.3125 15.609-11.156 19.922-6.2344 4.4531-12 15.375-18.938 10.922 2.8594 9.4688-15.703 13.453-17.062 23.062-3 21.375 8.0625 53.156-13.922 66-12 6.9375-12 10.453-10.078 24 0.89062 5.7188-2.0156 11.438-7.2188 14.016-2.8594 1.1719-5.0156 3.6094-5.8125 6.5625-0.75 3-0.09375 6.1875 1.875 8.5781 3.375 6.4688 16.922 13.922 10.688 21.703-4.6875 5.625-8.1562 10.219-12.938 16.453-12 15.938-40.688 12-52.547 27.703-5.2969 6.9375-7.7812 12-15 15.141-7.2188 3.1406-8.2969 5.8594-11.062 12-8.2969 4.9219-22.312 14.156-32.156 9.7031-10.922 9.8438-13.219 19.781-29.062 21.938-2.0625 0-5.5312 4.0781-7.4531 2.3906 1.4531 4.4531-7.3125 5.7656-9.9375 6.7031-12 4.4531-20.297 12.938-32.297 17.156-8.1562-5.7656-17.625 7.7812-24 12-2.7656 1.5469-6.9375 3.9375-8.1562 7.0781-7.5469 21.141-17.391 43.922-22.922 64.688-6.4688 24-2.3906 27.844 17.766 39.141 7.5469-6.375 21.469 13.219 29.766 16.219-6.8438-5.1562-14.625 1.4531-22.078 0-12-2.1562-24-6.7031-37.078-7.7812h-0.046875c-10.125-0.70312-20.25 0.1875-30.094 2.625-9 2.2969-8.0625 5.7656-3.8438 12 2.0625 3.1406 5.625 6.1406 7.6875 9.6094 0.84375 1.8281 1.3125 3.8438 1.4062 5.8594-1.7344 0.46875-3.5625 0.65625-5.3906 0.60938-9.4219-1.5-18.75-3.75-27.844-6.7031-12.516-5.2031-26.438-6-39.469-2.2969-18.234 5.2969-36 12.609-53.297 18.609-12.938 4.4531-25.922 8.0625-39.234 12-2.1562 0.32813-4.4062 0.32813-6.6094 0l1.7812-6.9375c0-1.3125 1.0781-1.3125 1.4531-2.0625 4.5469-8.8594 3.375-12.703-7.0781-13.547h0.046875c-5.8125-0.65625-11.672-0.42188-17.438 0.70312-10.594 2.7656-21.609 3.5156-32.484 2.2969-4.3125 0-22.688-1.2188-19.688-8.2969 4.2188-10.219 20.391-10.453 29.859-11.297 7.3125-0.60938 12.703 0 20.062-0.70313 7.3125-0.70312 15.844-1.2188 24-1.4531 8.9062 0.09375 17.391-4.0312 22.781-11.156 5.5781-9.6562 17.484-13.734 27.844-9.4688 8.8594 2.7656 18.516 1.3125 26.156-3.9375 4.2188-2.5312 7.4531-11.297 12-9.1406 14.672-23.672 25.547-49.5 32.156-76.547 1.125-4.2656 1.5469-8.6719 1.2188-13.078 0.46875-3.1406-0.32812-6.375-2.2031-8.9531-1.9219-2.5781-4.7344-4.2656-7.875-4.7344-5.5312-1.9219-7.9219-1.9219-15.938-5.0625-8.0625-3.1406-40.078-3.9375-45.938-8.625-10.547-8.3906-10.547-15.703-20.297-20.531-9.7031-4.7812-18.609-4.4531-28.078-8.625h-0.046875c-9.7969-6.0469-19.078-12.938-27.703-20.531-11.766-6.2812-24.656-10.078-37.922-11.156-17.484-3.0469-34.688-7.3594-51.469-12.938-21.844-7.2188-42.141-14.672-63.375-23.766zm174.47-448.32c-0.79687 0.23438-1.5938 0.23438-2.3906 0 0.70312-0.5625 1.6875-0.5625 2.3906 0z"/>
</svg>
