<?xml version="1.0" encoding="UTF-8"?>
<svg width="1200pt" height="1200pt" version="1.1" viewBox="0 0 1200 1200" xmlns="http://www.w3.org/2000/svg">
 <path d="m987.84 627.48c-0.83984-3.0742-2.8711-5.6836-5.6367-7.2617-2.7695-1.5742-6.0508-1.9844-9.125-1.1406-6.2891 1.8086-9.9727 8.3203-8.2773 14.641 8.1328 30.488 12.168 61.926 12 93.48v170.88c-0.12109 10.051-3.8672 19.723-10.543 27.234-6.6758 7.5156-15.84 12.367-25.805 13.668-9.9688 1.3008-20.07-1.0352-28.453-6.582-50.617-34.855-106.83-60.789-166.2-76.68-16.852-4.5508-31.867-14.238-42.961-27.719l49.922-49.922h60c3.1445-0.011719 6.1641-1.2617 8.3984-3.4766l36-36c4.0781-4.7617 3.8047-11.859-0.62891-16.293s-11.531-4.707-16.293-0.62891l-32.879 33h-48v-57.602c-0.011719-3.1445-1.2617-6.1641-3.4805-8.3984l-25.922-25.922 0.003907 0.003907c-4.7617-3.8125-11.625-3.4453-15.953 0.85156-4.3281 4.2969-4.7422 11.156-0.96875 15.945l22.441 22.441v60l-45.48 45.602c-4.4883-10.422-6.7773-21.656-6.7188-33v-365.4c-0.046875-7.7266 3.5234-15.027 9.6445-19.738 6.125-4.7109 14.098-6.2852 21.555-4.2617 60.961 16.102 116.49 48.262 160.8 93.121l-36 36h-53.762l-24-24c-4.6641-4.5742-12.133-4.5742-16.801 0-4.6523 4.6797-4.6523 12.238 0 16.918l27.48 27.48c2.2344 2.2188 5.2539 3.4688 8.4023 3.4805h56.281l27.719 48v37.801c0 6.6289 5.3711 12 12 12 6.625 0 12-5.3711 12-12v-40.68c-0.042968-2.0742-0.625-4.0977-1.6797-5.8789l-28.078-48.719 32.762-32.762h-0.003907c22.387 26.086 40.898 55.266 54.957 86.641 3.0234 5.4297 9.6914 7.6562 15.367 5.1289 5.6797-2.5273 8.4883-8.9727 6.4727-14.852-22.898-51.422-57.035-97.055-99.898-133.54-42.863-36.488-93.363-62.902-147.78-77.301-14.652-3.8633-30.27-0.72266-42.289 8.5039-12.023 9.2305-19.094 23.504-19.148 38.656v103.68l-1.3203-0.83984c-9.1328-5.2695-14.758-15.016-14.762-25.559v-94.082c5.3438-1.4922 8.9648-6.4531 8.7617-12 0.20312-5.543-3.418-10.504-8.7617-12v-14.039c5.3438-1.4922 8.9648-6.457 8.7617-12 0.20312-5.543-3.418-10.504-8.7617-12v-13.918c5.1211-1.4961 8.6406-6.1875 8.6406-11.52 0-5.3359-3.5195-10.027-8.6406-11.523v-40.801 0.003906c0-4.3281-1.7188-8.4805-4.7773-11.543-3.0625-3.0586-7.2148-4.7773-11.543-4.7773h-66.719c-4.3281 0-8.4805 1.7188-11.539 4.7773-3.0625 3.0625-4.7812 7.2148-4.7812 11.543v40.801-0.003906c-5.1211 1.4961-8.6406 6.1875-8.6406 11.523 0 5.332 3.5195 10.023 8.6406 11.52v14.879c-5.3438 1.4922-8.9648 6.457-8.7617 12-0.20312 5.543 3.418 10.504 8.7617 12v15c-5.3438 1.4922-8.9648 6.457-8.7617 12-0.20312 5.543 3.418 10.504 8.7617 12v20.641c0 6.625 5.3711 12 12 12s12-5.375 12-12v-22.199h51.602v93.719c0.003906 19.047 10.152 36.652 26.637 46.199l13.32 7.8008v60l-41.16-24c-7.4609-4.3086-15.922-6.5742-24.539-6.5742-8.6133 0-17.078 2.2656-24.539 6.5742l-41.16 23.52v-60l13.32-7.8008c16.484-9.5469 26.637-27.148 26.641-46.199v-17.16c0-6.6289-5.375-12-12-12-6.6289 0-12 5.3711-12 12v17.641c-0.003907 10.512-5.5742 20.238-14.641 25.559l-1.4414 0.83984v-103.68c-0.015625-15.145-7.0586-29.422-19.062-38.656-12.008-9.2305-27.613-12.371-42.258-8.5039-80.457 21.48-151.57 68.91-202.32 134.93-50.75 66.027-78.293 146.95-78.355 230.23v170.88c0 16.047 5.875 31.531 16.516 43.539 10.641 12.008 25.312 19.703 41.238 21.629 15.926 1.9258 32.008-2.043 45.207-11.168 48.324-33.336 102.03-58.098 158.76-73.199 23.023-6.0859 43.387-19.609 57.93-38.469 14.539-18.859 22.438-41.996 22.469-65.809v-57.723c0-6.625-5.3711-12-12-12s-12 5.375-12 12v4.0781l-28.922-28.801v-40.438l10.559-10.441 0.003906 0.003906c4.6523-4.6836 4.6523-12.242 0-16.922-4.6797-4.6523-12.238-4.6523-16.922 0l-14.039 13.922c-2.2461 2.2617-3.5 5.3281-3.4805 8.5195v38.398h-29.16l-27.48-27.602v0.003906c-2.1719-2.543-5.3086-4.0586-8.6484-4.1875-3.3438-0.12891-6.5859 1.1406-8.9492 3.5078-2.3633 2.3633-3.6367 5.6055-3.5078 8.9453 0.12891 3.3438 1.6484 6.4766 4.1875 8.6523l31.078 30.961c2.2188 2.2617 5.2344 3.5547 8.4023 3.5977h41.039l45.84 45.723v19.801c-0.011719 18.504-6.1367 36.488-17.418 51.16-11.285 14.668-27.098 25.199-44.98 29.957-59.414 15.879-115.67 41.812-166.32 76.68-8.3945 5.8086-18.625 8.3398-28.758 7.1211-10.133-1.2227-19.469-6.1133-26.242-13.746-6.7734-7.6367-10.516-17.488-10.52-27.695v-53.277l27.48-27.48 22.918 22.68c4.6797 4.6523 12.238 4.6523 16.918 0l42-42c4.6562-4.6797 4.6562-12.238 0-16.922-4.6797-4.6523-12.238-4.6523-16.918 0l-33.602 33.602-16.559-16.199 27-46.801c1.5938-2.7578 2.0273-6.0391 1.1992-9.1211l-13.32-49.68c-0.48828-3.3867-2.4023-6.4062-5.2617-8.293-2.8555-1.8867-6.3828-2.4648-9.6953-1.5859-3.3086 0.87891-6.0859 3.1328-7.6289 6.1875s-1.707 6.625-0.45312 9.8125l12 45-27.84 49.199-17.879 17.762v-84c0.050781-77.984 25.832-153.77 73.352-215.61 47.516-61.836 114.11-106.27 189.45-126.39 7.4648-2.0195 15.445-0.44141 21.586 4.2617 6.1406 4.707 9.7383 12.004 9.7305 19.738v252c0 6.625 5.375 12 12 12 6.6289 0 12-5.375 12-12v-33.359l53.16-30.719v-0.003906c3.8242-2.2344 8.1719-3.4141 12.602-3.4141s8.7773 1.1797 12.602 3.4141l53.16 30.719v147c0.015625 23.781 7.8789 46.895 22.371 65.75 14.496 18.855 34.809 32.398 57.789 38.527 56.73 15.102 110.43 39.863 158.76 73.199 13.199 9.125 29.281 13.094 45.207 11.168 15.926-1.9258 30.598-9.6211 41.238-21.629 10.641-12.008 16.516-27.492 16.516-43.539v-170.88c-0.12109-33.707-4.7617-67.246-13.801-99.719zm-368.52-258.6h-51.602v-14.039h51.602zm0-37.922h-51.602v-14.035h51.602zm0-37.922h-51.602v-32.875h51.602z"/>
 <path d="m393.24 469.56c-8.7812 0-17.207 3.4922-23.418 9.7031-6.2109 6.2109-9.6992 14.633-9.6992 23.418 0 8.7852 3.4883 17.207 9.6992 23.418 6.2109 6.2148 14.637 9.7031 23.418 9.7031 8.7852 0 17.211-3.4883 23.422-9.7031 6.2109-6.2109 9.6992-14.633 9.6992-23.418-0.03125-8.7734-3.5312-17.18-9.7344-23.383-6.2031-6.207-14.609-9.707-23.387-9.7383zm0 42.359v0.003906c-3.7344 0-7.1055-2.2539-8.5352-5.707s-0.64062-7.4258 2.0039-10.07c2.6406-2.6406 6.6172-3.4297 10.07-2 3.4531 1.4297 5.7031 4.7969 5.7031 8.5352 0 5.1016-4.1367 9.2422-9.2422 9.2422z"/>
 <path d="m310.56 618.6c-8.8203-0.035156-17.293 3.4453-23.551 9.6641-6.2578 6.2188-9.7852 14.672-9.8086 23.492-0.019531 8.8242 3.4648 17.293 9.6953 23.543 6.2266 6.25 14.684 9.7695 23.504 9.7773 8.8242 0.011719 17.289-3.4844 23.531-9.7188 6.2422-6.2344 9.75-14.695 9.75-23.52 0-8.793-3.4844-17.23-9.6914-23.461-6.2109-6.2305-14.633-9.7461-23.43-9.7773zm0 42.48v-0.003906c-3.8047 0.050781-7.2617-2.2109-8.7422-5.7188-1.4805-3.5117-0.6875-7.5664 2.0039-10.258 2.6953-2.6914 6.75-3.4844 10.258-2.0039 3.5078 1.4766 5.7695 4.9336 5.7227 8.7422-0.066406 5.0781-4.1641 9.1758-9.2422 9.2383z"/>
 <path d="m406.68 756.72c-8.8281-0.03125-17.309 3.4531-23.566 9.6797-6.2578 6.2305-9.7812 14.691-9.793 23.52-0.011718 8.832 3.4922 17.301 9.7344 23.547 6.2461 6.2422 14.715 9.7461 23.547 9.7344 8.8281-0.011719 17.289-3.5352 23.52-9.793 6.2266-6.2578 9.7109-14.738 9.6797-23.566-0.03125-8.7734-3.5312-17.18-9.7383-23.383-6.2031-6.207-14.609-9.707-23.383-9.7383zm0 42.359c-3.7383 0-7.1055-2.25-8.5352-5.7031-1.4297-3.4531-0.64062-7.4258 2-10.07 2.6445-2.6406 6.6172-3.4297 10.07-2 3.4531 1.4297 5.707 4.7969 5.707 8.5352 0 5.1016-4.1406 9.2383-9.2422 9.2383z"/>
 <path d="m763.8 565.8c-8.7852 0-17.207 3.4883-23.422 9.6992-6.2109 6.2109-9.6992 14.637-9.6992 23.422 0 8.7812 3.4883 17.207 9.6992 23.418 6.2148 6.2109 14.637 9.6992 23.422 9.6992 8.7812 0 17.207-3.4883 23.418-9.6992 6.2109-6.2109 9.7031-14.637 9.7031-23.418-0.035156-8.7773-3.5312-17.184-9.7383-23.387-6.2031-6.2031-14.609-9.7031-23.383-9.7344zm0 42.359c-3.7383 0-7.1055-2.25-8.5391-5.7031-1.4297-3.4531-0.63672-7.4297 2.0039-10.07 2.6445-2.6445 6.6172-3.4336 10.07-2.0039 3.4531 1.4297 5.7031 4.8008 5.7031 8.5391 0 2.4492-0.97266 4.8008-2.707 6.5312-1.7305 1.7344-4.082 2.707-6.5312 2.707z"/>
 <path d="m911.04 794.16c-8.8281-0.03125-17.309 3.4492-23.566 9.6797-6.2578 6.2266-9.7812 14.691-9.793 23.52-0.011719 8.832 3.4922 17.301 9.7344 23.543 6.2461 6.2461 14.715 9.7461 23.547 9.7383 8.8281-0.011719 17.293-3.5352 23.52-9.793 6.2305-6.2578 9.7109-14.738 9.6797-23.566-0.03125-8.7773-3.5312-17.18-9.7344-23.387-6.207-6.2031-14.613-9.7031-23.387-9.7344zm0 42.48c-3.7969 0.046875-7.2461-2.2031-8.7305-5.6953-1.4883-3.4922-0.71875-7.5391 1.9492-10.238 2.668-2.7031 6.7031-3.5273 10.215-2.0859 3.5117 1.4414 5.8086 4.8633 5.8086 8.6602 0.03125 2.4688-0.92969 4.8516-2.6641 6.6094-1.7383 1.7578-4.1055 2.75-6.5781 2.75z"/>
 <path d="m741 435.24c0 4.8555-2.9219 9.2305-7.4062 11.09-4.4844 1.8555-9.6484 0.82812-13.078-2.6016-3.4336-3.4336-4.4609-8.5938-2.6016-13.078 1.8555-4.4844 6.2305-7.4102 11.086-7.4102 3.1836 0 6.2344 1.2656 8.4844 3.5156s3.5156 5.3047 3.5156 8.4844z"/>
 <path d="m842.16 662.16c0 6.6289-5.3711 12-12 12s-12-5.3711-12-12 5.3711-12 12-12 12 5.3711 12 12z"/>
 <path d="m915.72 678c0 4.8555-2.9219 9.2305-7.4062 11.086-4.4844 1.8594-9.6445 0.83203-13.078-2.6016-3.4297-3.4297-4.457-8.5938-2.6016-13.078 1.8594-4.4844 6.2344-7.4062 11.086-7.4062 3.1836 0 6.2344 1.2656 8.4883 3.5156 2.25 2.25 3.5117 5.3008 3.5117 8.4844z"/>
 <path d="m822.48 827.28c0 4.8516-2.9258 9.2266-7.4102 11.086-4.4805 1.8555-9.6445 0.82812-13.074-2.6016-3.4336-3.4336-4.4609-8.5938-2.6016-13.078 1.8555-4.4844 6.2305-7.4062 11.086-7.4062 3.1836 0 6.2344 1.2617 8.4844 3.5117 2.25 2.2539 3.5156 5.3047 3.5156 8.4883z"/>
 <path d="m398.04 604.44c0 6.625-5.3711 12-12 12-6.625 0-12-5.375-12-12 0-6.6289 5.375-12 12-12 6.6289 0 12 5.3711 12 12z"/>
 <path d="m322.56 561.84c0 6.6289-5.3711 12-12 12-6.625 0-12-5.3711-12-12s5.375-12 12-12c6.6289 0 12 5.3711 12 12z"/>
 <path d="m474.96 453.24c0 4.8555-2.9258 9.2305-7.4102 11.09-4.4844 1.8555-9.6445 0.82812-13.074-2.6016-3.4336-3.4336-4.4609-8.5938-2.6016-13.078 1.8555-4.4844 6.2305-7.4102 11.086-7.4102 3.1836 0 6.2344 1.2656 8.4844 3.5156s3.5156 5.3047 3.5156 8.4844z"/>
 <path d="m474.96 543.48c0 4.8516-2.9258 9.2305-7.4102 11.086-4.4844 1.8594-9.6445 0.83203-13.074-2.6016-3.4336-3.4297-4.4609-8.5938-2.6016-13.078 1.8555-4.4844 6.2305-7.4062 11.086-7.4062 3.1836 0 6.2344 1.2656 8.4844 3.5156s3.5156 5.3008 3.5156 8.4844z"/>
 <path d="m264.96 892.8c0 4.8516-2.9258 9.2266-7.4102 11.086-4.4844 1.8555-9.6445 0.83203-13.074-2.6016-3.4336-3.4336-4.4609-8.5938-2.6016-13.078 1.8555-4.4844 6.2305-7.4062 11.086-7.4062 3.1836 0 6.2344 1.2617 8.4844 3.5156 2.25 2.25 3.5156 5.3008 3.5156 8.4844z"/>
 <path d="m352.56 840c0 4.8555-2.9219 9.2305-7.4062 11.086-4.4844 1.8594-9.6445 0.83203-13.078-2.6016-3.4297-3.4297-4.457-8.5938-2.6016-13.078 1.8594-4.4844 6.2344-7.4062 11.086-7.4062 3.1836 0 6.2344 1.2656 8.4883 3.5156 2.25 2.25 3.5117 5.3008 3.5117 8.4844z"/>
</svg>
