<?xml version="1.0" encoding="UTF-8"?>
<svg width="100pt" height="100pt" version="1.1" viewBox="0 0 100 100" xmlns="http://www.w3.org/2000/svg">
 <path d="m72.699 42.285-14.988-14.988 1.1641-1.1641c0.38281-0.38281 0.38281-1.0078 0-1.3906 0 0-1.4453-1.4453-2.5312-2.5312-1.043-1.043-2.7305-1.043-3.7695 0l-11.023 11.02c-1.043 1.043-1.043 2.7305 0 3.7695l2.5312 2.5312c0.38672 0.38281 1.0078 0.38281 1.3906 0l1.168-1.1641 5.3359 5.3359-14.855 14.855-0.82031-0.82031c-0.38281-0.38281-1.0078-0.38281-1.3906 0l-13.16 13.16c-0.38281 0.38281-0.38281 1.0078 0 1.3906l5.957 5.957c0.38281 0.38281 1.0078 0.38281 1.3906 0l13.16-13.16c0.38281-0.38281 0.38281-1.0078 0-1.3906l-0.76562-0.76562 14.855-14.855 5.2812 5.2812-1.1641 1.168c-0.38281 0.38281-0.38281 1.0039 0 1.3906 0 0 1.3906 1.3906 2.4727 2.4727 0.51562 0.51562 1.2148 0.80469 1.9453 0.80469 0.73047 0.003906 1.4297-0.28906 1.9453-0.80469l10.898-10.902c0.51953-0.51562 0.80859-1.2148 0.80859-1.9453 0-0.73047-0.28906-1.4297-0.80859-1.9453l-2.4727-2.4727c-0.38281-0.38281-1.0078-0.38281-1.3906 0zm-32.527 22.105-4.5625-4.5625-11.77 11.77 4.5625 4.5625 11.77-11.77zm-0.070313-2.8555-1.5859-1.5859 14.695-14.695 1.5859 1.5859zm13.863-37.934c0.27344-0.27344 0.71484-0.27344 0.98828 0 0 0 1.8359 1.8359 1.8359 1.8359l-12.008 12.012-1.8398-1.8398c-0.27344-0.27344-0.27344-0.71484 0-0.98828zm2.3555 5.0898-6.7305 6.7344-1.5547 1.5547 14.988 14.988 8.2891-8.2852zm7.3945 25.363-1.1641 1.1641 1.7773 1.7773c0.14844 0.14844 0.34766 0.22656 0.55469 0.22656 0.20703 0 0.40625-0.082031 0.55469-0.22656l10.898-10.902c0.14844-0.14844 0.23047-0.34766 0.23047-0.55469 0-0.20703-0.082031-0.40625-0.23047-0.55469l-1.7734-1.7773-1.168 1.168-9.6758 9.6797-0.003906 0.003906z" fill="#fff" fill-rule="evenodd"/>
</svg>
