<?xml version="1.0" encoding="UTF-8"?>
<svg width="100pt" height="100pt" version="1.1" viewBox="0 0 100 100" xmlns="http://www.w3.org/2000/svg">
 <path d="m89.105 41.992v-14.52c0-1.1406-0.92188-2.0625-2.0625-2.0625s-2.0586 0.92188-2.0586 2.0625v8.4258h-8.8438v-8.4258c0-1.1406-0.92188-2.0625-2.0586-2.0625-1.1406 0-2.0625 0.92188-2.0625 2.0625v14.363h-3.918v-14.363c0-1.1406-0.92187-2.0625-2.0586-2.0625-1.1406 0-2.0586 0.92188-2.0586 2.0625v23.445h-8.8594v-23.441c0-1.1406-0.92188-2.0625-2.0625-2.0625s-2.0625 0.92188-2.0625 2.0625v14.363h-11.957v-22.398h7.0195c1.1406 0 2.0625-0.92188 2.0625-2.0625v-15.312c0-1.1367-0.92188-2.0625-2.0625-2.0625h-35.289c-1.1406 0-2.0625 0.92187-2.0625 2.0625v15.316c0 1.1367 0.92187 2.0625 2.0625 2.0625h7.0195v31.543l-15.059 29.219c-2.8906 5.4219-3.4922 10.047-1.7891 13.742 2.1914 4.7578 7.3555 5.9492 7.5742 6 0.14844 0.035156 0.29688 0.046875 0.44922 0.046875h38.906c0.14844 0 0.30078-0.015625 0.44922-0.046875 0.21484-0.046875 5.3828-1.2422 7.5742-6 1.1016-2.3906 1.2227-5.1758 0.40234-8.3008h22.195v3.6445c0 1.1367 0.92188 2.0586 2.0625 2.0586s2.0586-0.92187 2.0586-2.0586v-3.6445h4.5859c7.0547 0 12.793-5.7383 12.793-12.793v-18.23c0.003906-6.4023-4.7383-11.711-10.891-12.633zm-76.27-26.672v-11.195h31.164v11.191h-7.0195c-1.1367 0-2.0625 0.92188-2.0625 2.0625v11.43h-12.996l-0.003906-11.43c0-1.1367-0.92188-2.0625-2.0625-2.0625h-7.0195zm83.043 57.539c0 4.7773-3.8867 8.6641-8.668 8.6641h-32.395c-0.019531 0-0.039062 0.011718-0.058594 0.011718-0.20703-0.42969-0.39844-0.85938-0.63672-1.3008l-15.078-29.25v-5.0234h11.957v22.145c0 4.0977 3.332 7.4258 7.4258 7.4258h2.2383c2.2305 0 4.2109-1.0078 5.5742-2.5703h0.035157v-0.039063c1.1172-1.3008 1.8203-2.9727 1.8203-4.8203v-22.145h3.918v22.145c0 4.0977 3.332 7.4258 7.4258 7.4258h2.2383c2.2305 0 4.2109-1.0078 5.5742-2.5703h0.035156v-0.042969c1.1172-1.2969 1.8203-2.9688 1.8203-4.8164v-21.918c3.8672 0.86719 6.7734 4.3203 6.7734 8.4453z" fill="#fff"/>
</svg>
