<?xml version="1.0" encoding="UTF-8"?>
<svg width="100pt" height="100pt" version="1.1" viewBox="0 0 100 100" xmlns="http://www.w3.org/2000/svg">
 <path d="m31.391 11h19v14.66s1.5703 0.78906 1.6797 1.5703c0.10938 0.78125 0.44141 0.55859 2.3398 0 1.8984-0.55859 1.3398 1.4492 1.8984 1.5586 0.55859 0.10938 2.5703 1 3.2383 0.78125 0.67188-0.21875 2-0.37109 2.2305 0 0.23047 0.37109-0.23047 2.5312 2.2305 1.5195 2.4609-1.0117 3 0.44922 3.5703 0.78906s3.5703-0.89844 4.8008 0c1.2305 0.89844 2.5703 1 3.2383 0 0.67187-1 4.3516-2.1797 5.5781-1.0586 1.2305 1.1211 1.4492 1.5586 2.7891 1.7305s1.8984 0.83984 2.5703 1c0.67578 0.16016 1.4453-0.17969 1.4453 1.4492s-0.23047 9.2617 0 10.051c0.23047 0.78906 1.5586 1.7812 1.5586 2.7891 0 1.0117 0.10938 2.3398 0.78125 2.8984 0.67188 0.55859 1 2.8984 0.44922 3.4609-0.55078 0.55859-0.67187 2.1211-0.89844 3-0.23047 0.87891 0 2.2305-0.32812 3s0.55859 1.3398-1.1211 1.7812c-1.6797 0.44141-3.5703 1.6797-4.3516 0.78125-0.78125-0.89844-1.7812-0.78125-2.1211-0.21875-0.33984 0.55859 0.55859 1.5586 0.44922 2.2305-0.10938 0.67187-2.7891 2.4609-4 3.2383-1.207 0.77734-3.418 2.1875-4.418 1.4102-1-0.78125-2.6797-1.4492-2.5703-0.33984 0.10937 1.1094 1.6719 2.4609-0.33984 2.5703-2.0117 0.10938-3 1-3.1211 2.2305-0.12109 1.2305-0.89062 1.5703-1.3398 2.6797v-0.003906c-0.49609 1.1016-0.83594 2.2656-1 3.4609-0.18359 1.1484 0.015625 2.3242 0.5625 3.3516 0.55859 0.78125-0.21875 2.7891 0.67188 3.9102s0.44922 2-0.78125 1.5586h-0.003906c-1.4141-0.40625-2.8633-0.6875-4.3281-0.83984-0.89844-0.10938-4.2383-2.7891-5.25-3.1289s-1.2305-1.2305-2.1211-4.3516c-0.89062-3.1211-1.4492-3.6797-2.5703-4.5781-1.1211-0.89844-3.1211-4.3516-3.8984-5.9102-0.83203-1.9453-1.8047-3.8281-2.9102-5.6328-1-1.3398-3-3.5781-4.3594-3.1289s-7.5898-0.55859-8.1484 2c-0.55859 2.5586-1.8906 3.5703-3 3-1.1094-0.57031-6.8086-3.6797-7.3711-4.9102s-1.1211-1.6484-1.3398-3.5508c-0.54297-2.0742-1.8594-3.8633-3.6797-5-1.1016-0.46875-3.2422-1.1289-3.793-2.8086-0.44922-1.4961-1.6992-2.6172-3.2383-2.8984-1.2305-0.10156-1.0703-1.793-1.0703-1.793l22.328-0.10938z" fill="#bf0c3d"/>
</svg>
