<?xml version="1.0" encoding="UTF-8"?>
<svg width="100pt" height="100pt" version="1.1" viewBox="0 0 100 100" xmlns="http://www.w3.org/2000/svg">
 <g fill="#fff">
  <path d="m62.41 29.867c-1.1758-0.63281-2.4414-1.6836-3.7852-2.793-1.3008-1.0742-2.6445-2.1875-4.0547-3.0469-1.6523-1.0078-3.1367-1.4961-4.543-1.4961-1.4023 0-2.8906 0.48828-4.543 1.4961-1.4102 0.85938-2.7539 1.9727-4.0547 3.0469-1.3438 1.1094-2.6094 2.1562-3.7852 2.793-0.29688 0.16016-0.40625 0.52734-0.24609 0.82422 0.10937 0.20312 0.32031 0.32031 0.53516 0.32031 0.097656 0 0.19531-0.023438 0.28906-0.074219 1.2812-0.69141 2.5938-1.7773 3.9805-2.9258 2.5352-2.0977 5.1562-4.2656 7.8203-4.2656 2.6641 0 5.2852 2.168 7.8203 4.2656 1.3867 1.1484 2.6992 2.2344 3.9805 2.9258 0.29688 0.16016 0.66406 0.050781 0.82422-0.24609 0.16797-0.29688 0.058593-0.66406-0.23828-0.82422z"/>
  <path d="m84.52 72.203-7.168-5.2852c1.2422-2.0391 2.2109-4.207 2.8867-6.4609 0.75-2.5078 1.1289-5.1094 1.1289-7.7344 0-5.2305-1.5195-10.336-4.3984-14.801l7.5469-5.5664c0.60547-0.44531 0.73438-1.3008 0.28906-1.9023l-1.1602-1.5742c-0.21484-0.29297-0.53125-0.48438-0.89062-0.53906-0.35938-0.054688-0.71875 0.035156-1.0117 0.25l-7.6172 5.6172c-2.3516-2.6094-5.1445-4.7969-8.3164-6.5117-1.5234-0.82031-3.1484-2.168-4.875-3.5938-1.6602-1.375-3.3789-2.7969-5.1758-3.8906-2.0859-1.2734-3.9609-1.8945-5.7266-1.8945s-3.6406 0.62109-5.7305 1.8945c-1.793 1.0938-3.5117 2.5156-5.1758 3.8906-1.7227 1.4258-3.3555 2.7734-4.875 3.5938-3.1836 1.7188-5.9844 3.9141-8.3438 6.5352l-7.6523-5.6406c-0.60547-0.44531-1.457-0.31641-1.9023 0.28906l-1.1602 1.5742c-0.21484 0.29297-0.30469 0.65234-0.25 1.0117 0.054688 0.35938 0.24609 0.67578 0.53906 0.89062l7.5898 5.5977c-1.3516 2.1055-2.4102 4.3555-3.1445 6.7031-0.81641 2.6094-1.2305 5.3242-1.2305 8.0664 0 2.6211 0.37891 5.2188 1.125 7.7188 0.67188 2.2422 1.6367 4.4062 2.8711 6.4414l-7.2109 5.3203c-0.60547 0.44531-0.73438 1.3008-0.28906 1.9023l1.1602 1.5742c0.26563 0.36328 0.67969 0.55469 1.0977 0.55469 0.28125 0 0.5625-0.085937 0.80469-0.26562l7.1797-5.293c1.3398 1.5664 2.8555 3.0078 4.5156 4.2852 1.8203 1.4062 3.8164 2.6211 5.9258 3.6094 2.1484 1.0078 4.4258 1.7812 6.7617 2.3047 2.4062 0.53906 4.8906 0.80859 7.3867 0.80859 2.4922 0 4.9766-0.27344 7.3789-0.80859 2.3359-0.51953 4.6094-1.293 6.7539-2.2969 2.1094-0.98438 4.1016-2.1992 5.9219-3.6016 1.6562-1.2773 3.1758-2.7148 4.5156-4.2773l7.1445 5.2656c0.23438 0.17578 0.51562 0.26562 0.80469 0.26562 0.066406 0 0.13672-0.007813 0.20703-0.015625 0.35938-0.054688 0.67578-0.24609 0.89062-0.53906l1.1602-1.5742c0.45312-0.60156 0.32422-1.457-0.28125-1.8984zm-2.0547-42.633c0.039062-0.03125 0.078125-0.03125 0.10938-0.027343 0.027343 0.003906 0.066406 0.019531 0.097656 0.058593l1.1602 1.5742c0.046875 0.0625 0.035157 0.15625-0.03125 0.20312l-10.613 7.8242c-0.23828-0.35938-0.48828-0.71094-0.74609-1.0586-0.1875-0.25391-0.38281-0.50391-0.58203-0.75391zm-66.293 1.6055 1.1602-1.5742c0.046875-0.0625 0.13672-0.078124 0.20312-0.03125l10.645 7.8516c-0.19141 0.23828-0.37891 0.48047-0.55859 0.72266-0.26562 0.35547-0.51953 0.71875-0.76562 1.0898l-10.652-7.8555c-0.066406-0.050781-0.078125-0.14062-0.03125-0.20312zm1.3633 43.812c-0.0625 0.046875-0.15625 0.035157-0.20312-0.03125l-1.1602-1.5742c-0.046875-0.0625-0.035156-0.15625 0.03125-0.20312l7.582-5.5898c0.015625-0.007813 0.03125-0.019532 0.046875-0.027344 0.039063-0.027344 0.074219-0.054688 0.10938-0.089844l2.8477-2.0977c0.19141 0.29297 0.38672 0.57812 0.59375 0.86328 0.23047 0.32422 0.47266 0.64062 0.72266 0.95703l-2.9297 2.1602zm32.496 5.4766c-9.2891 0-17.855-3.8242-23.609-10.516l2.4648-1.8164c0.75781 0.86719 1.5742 1.6875 2.4531 2.4531 0.11719 0.10156 0.25781 0.14844 0.39844 0.14844 0.17188 0 0.33984-0.070313 0.45703-0.20703 0.22266-0.25391 0.19531-0.63672-0.054687-0.85938-2.8555-2.5039-5.0859-5.6133-6.4492-8.9961-0.125-0.3125-0.48047-0.46094-0.79297-0.33594s-0.46094 0.48047-0.33594 0.79297c0.44531 1.1016 0.97266 2.1758 1.5859 3.2109l-2.4727 1.8203c-2.4648-4.0938-3.7656-8.7266-3.7656-13.438 0-4.957 1.4297-9.8008 4.1406-14.047l2.1523 1.5898c-0.47656 0.80078-0.90625 1.625-1.2852 2.4648-0.13672 0.30469 0 0.66406 0.30469 0.80469 0.078125 0.035156 0.16406 0.054688 0.24609 0.054688 0.23047 0 0.45312-0.13281 0.55469-0.35938 0.42969-0.95312 0.91797-1.8711 1.4688-2.7578 0.003906-0.003906 0.003906-0.003906 0.003906-0.007812 0.019531-0.027344 0.035156-0.054688 0.050781-0.085938 0.57812-0.92188 1.2227-1.8008 1.9297-2.6406 0.023438-0.023437 0.042969-0.046875 0.0625-0.070312 0.003907-0.003907 0.007813-0.007813 0.011719-0.015625 0.76172-0.89453 1.5977-1.7461 2.5-2.5469 0.25391-0.22266 0.27734-0.60547 0.050781-0.85938-0.22266-0.25391-0.60547-0.27734-0.85937-0.050782-0.8125 0.71875-1.5742 1.4805-2.2852 2.2852l-2.0703-1.5273c2.2422-2.4766 4.9102-4.5586 7.9375-6.1914 1.625-0.87891 3.3008-2.2617 5.0703-3.7266 3.2734-2.707 6.6523-5.5039 10.129-5.5039 3.4727 0 6.8555 2.7969 10.125 5.5039 1.7734 1.4648 3.4453 2.8516 5.0703 3.7266 3.0156 1.625 5.6719 3.6992 7.9102 6.1641l-2.0703 1.5273c-0.70312-0.79297-1.4609-1.5508-2.2617-2.2617-0.25391-0.22266-0.63672-0.19922-0.85938 0.050782-0.22266 0.25391-0.19922 0.63672 0.050781 0.85937 0.89453 0.79297 1.7227 1.6328 2.4766 2.5195 0.003906 0.003906 0.007812 0.007812 0.011718 0.015625 0.019532 0.027343 0.039063 0.050781 0.0625 0.074219 0.70703 0.83984 1.3516 1.7188 1.9336 2.6367 0.015625 0.027344 0.03125 0.054688 0.050782 0.082032l0.007812 0.007812c0.55859 0.89453 1.0547 1.8203 1.4844 2.7852 0.10156 0.22656 0.32031 0.35938 0.55469 0.35938 0.085938 0 0.16797-0.019531 0.24609-0.054687 0.30469-0.13672 0.44531-0.49609 0.30469-0.80469-0.38281-0.85156-0.81641-1.6875-1.3008-2.4961l2.1523-1.5898c2.7227 4.2539 4.1602 9.1055 4.1602 14.078 0 4.7227-1.3047 9.3672-3.7812 13.469l-2.4688-1.8203c0.61719-1.0469 1.1523-2.1289 1.6016-3.2422 0.125-0.3125-0.027344-0.66406-0.33594-0.79297-0.3125-0.125-0.66406 0.027344-0.79297 0.33594-1.3633 3.3828-3.5977 6.4961-6.4531 8.9961-0.25391 0.22266-0.27734 0.60547-0.054688 0.85938 0.12109 0.13672 0.28906 0.20703 0.45703 0.20703 0.14062 0 0.28516-0.050781 0.39844-0.14844 0.86719-0.75781 1.6797-1.5703 2.4297-2.4258l2.4648 1.8164c-5.7344 6.6797-14.293 10.496-23.566 10.496zm33.797-7.082-1.1602 1.5742c-0.03125 0.039063-0.066407 0.054688-0.097657 0.058594-0.027343 0.003906-0.066406 0.003906-0.10937-0.027344l-7.6016-5.6055-0.003906-0.003906-2.9297-2.1602c0.25781-0.32031 0.50781-0.64844 0.74609-0.98438 0.19922-0.27344 0.38672-0.55078 0.57031-0.83203l10.547 7.7734c0.074219 0.050781 0.085938 0.14062 0.039063 0.20703z"/>
  <path d="m55.68 42.797h-11.324c-1.3008 0-2.3555 1.0586-2.3555 2.3555v15.137c0 1.3008 1.0586 2.3555 2.3555 2.3555l11.324 0.003907c1.3008 0 2.3555-1.0586 2.3555-2.3555v-15.137c0.003906-1.3008-1.0547-2.3594-2.3555-2.3594zm1.1406 17.496c0 0.62891-0.51172 1.1406-1.1406 1.1406h-11.324c-0.62891 0-1.1406-0.51172-1.1406-1.1406v-15.137c0-0.62891 0.51172-1.1406 1.1406-1.1406h11.324c0.62891 0 1.1406 0.51172 1.1406 1.1406z"/>
  <path d="m54.145 52.195h-8.25c-0.33594 0-0.60938 0.27344-0.60938 0.60938 0 0.33594 0.27344 0.60937 0.60938 0.60937h8.25c0.33594 0 0.60938-0.27344 0.60938-0.60937 0-0.33594-0.27344-0.60938-0.60938-0.60938z"/>
  <path d="m54.145 47.379h-8.25c-0.33594 0-0.60938 0.27344-0.60938 0.60938 0 0.33594 0.27344 0.60938 0.60938 0.60938h8.25c0.33594 0 0.60938-0.27344 0.60938-0.60938 0-0.33594-0.27344-0.60938-0.60938-0.60938z"/>
  <path d="m54.145 56.633h-8.25c-0.33594 0-0.60938 0.27344-0.60938 0.60938 0 0.33594 0.27344 0.60937 0.60938 0.60937h8.25c0.33594 0 0.60938-0.27344 0.60938-0.60937 0-0.33594-0.27344-0.60938-0.60938-0.60938z"/>
 </g>
</svg>
