<?xml version="1.0" encoding="UTF-8"?>
<svg width="100pt" height="100pt" version="1.1" viewBox="0 0 100 100" xmlns="http://www.w3.org/2000/svg">
 <path d="m58.719 8.7461c0.19531 0.050781 0.57031-0.054688 0.79297-0.039063 0.25781 0.019531 0.49219 0.18359 0.71875 0.15234 0.29297-0.042969 0.55469-0.41016 0.71875-0.56641 0.16406-0.15625 0.54688-0.4375 0.52734-0.75391-0.039062-0.69922-1.0898-0.40234-1.1328-1.207-0.023438-0.47656 0.51953-0.61719 0.41406-1.0938-0.058593-0.26953-0.35937-0.24609-0.56641-0.22656-0.39062 0.039062-0.84766 0.085937-1.1328 0.22656-0.55078 0.27734-0.4375 1.0312-0.64062 1.6992-0.082031 0.26953-0.28125 0.47266-0.30078 0.71875-0.046876 0.51953 0.30078 1.0156 0.60156 1.0898zm-20.941 5.9219c0.33984-0.19141 0.76562-0.60938 1.1719-0.75391 0.16797-0.058593 0.58203-0.074218 0.86719-0.1875 0.32031-0.12891 0.69141-0.44531 0.86719-0.79297 0.15625-0.30469 0.11719-0.62891 0.26562-1.0195 0.12109-0.32422 0.38672-0.75781 0.60547-1.0547 0.22656-0.3125 0.59375-0.53516 0.79297-0.90625 0.24219-0.45312 0.44141-1.3945-0.1875-1.3945-0.58984-0.003906-1.1328 0.51953-1.6211 0.71875-0.31641 0.12891-0.69922 0.16797-1.0195 0.30078-0.36328 0.15234-0.65625 0.41406-0.98047 0.52734-0.67187 0.23828-1.1367 0.20703-1.3594 0.82812-0.10547 0.30469-0.18359 1.2461-0.14844 1.5078 0.035156 0.30078 0.50391 0.56641 0.48828 0.90625-0.019531 0.45703-1.0078 0.63281-0.98047 1.168 0.027344 0.72266 1.0703 0.25 1.2383 0.15234zm38.145 58.441c-0.83984-0.85547-1.3477-1.6992-2.9805-1.7734-0.36719-0.015626-0.79688 0.035156-1.207 0-0.43359-0.039063-0.86328-0.074219-1.168 0.035156-0.51953 0.1875-0.63281 1.0625-1.207 1.1328-0.56641 0.066406-1.5039-0.80859-1.5117-1.3594-0.011718-0.8125 1.3555-1.1445 1.7344-1.8125 0.14844-0.25781 0.25-0.67969 0.1875-1.0547-0.070312-0.42578-0.49219-0.77734-0.60547-1.2461-0.082031-0.33594-0.011718-0.71094-0.11328-1.0586-0.12109-0.41797-0.47266-0.55469-0.71875-0.86719-0.26172-0.33594-0.52734-0.64453-0.71875-1.2812 0.36328-0.10156 0.99609 0.066406 1.168-0.22656-0.15234-1.3281-1.1953-2.1172-1.168-3.6211 0.007813-0.33984 0.18359-0.64844 0.14844-1.0195-0.023438-0.26953-0.21484-0.66406-0.33984-1.0547-0.10938-0.34766-0.32812-0.65625-0.45312-0.94141-0.29688-0.6875-0.43359-1.4258-0.79297-1.9609-0.29688-0.44141-0.76953-0.86719-1.207-1.168-0.60938-0.42188-1.4727-0.65625-1.9258-1.3203-0.37891-0.55859-0.60547-1.2188-0.67969-1.8477-0.082031-0.69922-0.039062-1.4375-0.22656-2.2617-0.085938-0.38672-0.29688-0.74609-0.33984-1.1328-0.042969-0.38281-0.027344-0.76172-0.074219-1.168-0.13281-1.1133 0.28906-2.3906-0.074218-3.3203-0.34375-0.875-1.0664-1.3984-1.4336-2.0742-0.28906-0.53125-0.39844-1.4219-0.86719-1.8477-0.17969-0.16406-0.60938-0.34766-0.82812-0.49219-0.75-0.48828-1.5781-1.5312-2.2656-1.5469-0.75-0.015624-0.76172 0.67969-1.6953 0.60547-0.52344-0.042969-1.3867-0.42578-1.3945-0.71875-0.011718-0.30859 0.53906-0.40234 0.79297-0.56641 0.38281-0.25 0.77734-0.78516 1.2812-0.90625 0.71094-0.17188 1.9688 0.32422 2.0352-0.56641 0.050781-0.62891-1.0625-0.8125-0.64063-1.8477 0.14453-0.35547 1.3672-0.78125 1.6992-1.0938 0.39453-0.37109 0.59766-1.1172 0.90625-1.5078 0.42188-0.54297 1.1445-0.82031 1.5078-1.4336 0.15625-0.26172 0.27734-0.66406 0.49219-1.0195 0.21094-0.34766 0.50391-0.65625 0.64062-0.98047 0.13672-0.32422 0.17188-0.69141 0.30078-1.0195 0.1875-0.46094 0.52734-0.9375 0.86719-1.2812 0.55859-0.57031 1.2734-1.0586 0.86719-2.1484-0.17969-0.48438-0.8125-1.2891-1.2461-1.3945-0.65625-0.16406-1.4297-0.097656-2.1133-0.26562-0.63281-0.15234-1.2383-0.5-1.8125-0.56641-0.40234-0.046875-0.76953 0.125-1.207 0.039063-0.49609-0.097657-0.85938-0.64063-1.4727-0.71875-0.375-0.046876-0.69141 0.10547-1.0195 0.1875-0.30469 0.078124-0.65625 0.10156-0.98047 0.1875-0.39844 0.10547-1.6367 0.53906-1.7734-0.074219-0.16406-0.73047 1.0977-0.96484 1.0938-1.6211-0.003906-0.41406-0.55469-0.39062-0.60547-0.79297-0.097656-0.82031 1.2695-1.5391 1.8867-1.8867 0.40625-0.23047 0.83203-0.41406 1.207-0.67969 0.34375-0.23828 0.69141-0.63281 1.0195-0.82812 0.74609-0.45703 1.7461-0.61328 1.9609-1.4727 0.0625-0.24219-0.03125-0.52734 0-0.79297 0.050782-0.44141 0.42578-0.63281 0.33984-1.0547-0.0625-0.29687-0.60547-0.52344-1.0547-0.52734-0.32812-0.003907-0.61719 0.17969-0.90625 0.1875-0.26562 0.007812-0.55859-0.10938-0.82812-0.11328-0.4375-0.007813-0.85547 0.1875-1.207 0.1875-0.35547 0-0.69531-0.19141-1.0586-0.22656-0.4375-0.039063-0.85156 0.078125-1.2461 0.039063-0.45312-0.046876-0.87109-0.34375-1.3203-0.45313-0.22656-0.054687-0.45703-0.019531-0.64062-0.074218-0.60156-0.17578-0.6875-0.85547-1.4727-0.82812-0.63672 0.023437-0.90234 0.73438-1.168 1.3594-0.10937 0.25391-0.40625 0.58984-0.48828 0.82812-0.10938 0.31641-0.035156 0.63281-0.22656 0.82812-0.28906 0.29688-0.8125 0.11719-0.98047 0.37891-0.19531 0.30078 0.10547 0.72266-0.074219 1.1328-0.20703 0.46875-0.74219 0.23828-0.79297 0.67969-0.0625 0.55078 0.53125 0.45703 0.56641 1.0938-0.40234 0.24219-0.74219 0.34375-1.0938 0.33984-0.28906-0.003906-0.52344-0.1875-0.79297-0.1875-0.39062-0.003906-0.89062 0.17578-1.0938 0.48828-0.39062 0.60156-0.10938 1.3672-0.33984 2.1875-0.14062 0.50781-0.57422 0.50391-0.71875 0.90625-0.16016 0.44531-0.078125 0.76562 0 1.0547 0.089844 0.32813 0.45703 0.48438 0.45312 0.79297-0.003906 0.35156-0.55469 0.65234-0.94141 0.56641-0.54297-0.12109-0.44141-0.91016-0.64062-1.6211-0.074219-0.26172-0.35156-0.58984-0.37891-0.82812-0.039063-0.36328 0.14062-0.84375 0.074218-1.2812-0.066406-0.44531-0.34766-0.875-0.71875-0.86719-0.69531 0.015625-0.36719 0.90234-0.82812 1.0938-0.21875 0.089844-0.41797-0.10156-0.71875-0.074219-0.19141 0.015626-0.47266 0.23047-0.67969 0.33984-0.24609 0.13281-0.44531 0.21094-0.48828 0.48828-0.13672 0.84375 0.76562 0.91797 1.0586 1.4727 0.32422 0.61719 0.26563 1.4688 0.86719 1.8125 0.375 0.21094 0.91406 0.12891 1.2461 0.37891 0.17188 0.20312-0.035156 0.78906 0.1875 0.94141 0.5625 0.14453 0.79297-0.32812 1.2812-0.37891-0.20312 1.0508-1.3242 1.3125-1.0586 2.7148-0.19531 0.73438-1.4375 0.42578-2.0742 0.71875-0.18359 0.23438 0.054688 0.55078-0.035156 0.79297-0.38672 0.25-0.95312 0.24609-1.0938 0.67969-0.17578 0.52734 0.41797 0.96094 0.33984 1.6211-0.03125 0.27344-0.20312 0.41406-0.37891 0.56641-0.10937 0.097656-0.46094 0.26953-0.41406 0.52734 0.042969 0.26172 0.53125 0.29297 0.60547 0.30078 0.28906 0.03125 0.57031-0.011719 0.86719-0.039063 0.48438-0.046874 1.332 0.007813 1.6602-0.14844 0.51172-0.25 0.4375-1.0781 0.86719-1.1719 0.27734-0.0625 0.56641 0.14062 0.60547 0.26562 0.11328 0.37891-0.55859 1.0312-0.79297 1.3203-0.28125 0.35156-0.78125 0.85937-0.79297 1.3203-0.007812 0.38281 0.3125 0.54688 0.30469 0.86719-0.019531 0.57422-0.72656 0.89453-0.86719 1.5078-0.16406 0.70312 0.054688 1.4727-0.039062 2.1523-0.054688 0.40625-0.47656 0.74219-0.67969 1.168-0.25391 0.53125-0.37891 1.1328-0.56641 1.5078-0.21484 0.42969-0.71875 0.90234-0.60547 1.3203 0.11719 0.43359 0.91016 0.51562 1.2812 0.11328 0.23047-0.25 0.20703-0.67188 0.33984-1.0195 0.24219-0.63672 0.59375-1.0977 1.0195-1.3945 0.3125 0.69531 0.11719 2.0625 1.1328 1.8867 0.57812-0.10156 0.5625-0.70312 0.48828-1.3594-0.074219-0.66406-0.082031-1.2617-0.64062-1.3203-0.44922-0.050782-0.55469 0.32031-0.90625 0.30078 0.003906-0.53125 0.26953-0.63672 0.52734-0.94141 0.19531-0.23437 0.35938-0.71875 0.67969-0.75391 0.58203-0.070312 0.70312 0.67188 0.90625 0.98047 0.16797 0.25781 0.57812 0.51953 0.86719 0.86719 0.16016 0.19141 0.26953 0.48828 0.45312 0.71875 0.32422 0.40625 0.78516 0.875 0.56641 1.6602-0.11328 0.41016-0.57031 0.54688-0.90625 0.90625-0.39062 0.41406-0.60938 1.0625-0.90625 1.4727-0.21484 0.29688-0.59375 0.51562-0.86719 0.82812-0.23047 0.26172-0.35937 0.61719-0.56641 0.82812-0.3125 0.32031-0.75391 0.44141-0.86719 0.79297-0.19531 0.59766 0.25781 1.8242 0.71875 1.9258 0.25391 0.054687 0.49219-0.41406 0.90625-0.41406 0.55469 0.003907 0.90234 0.55078 1.1328 0.86719 0.23047 0.32031 0.48828 1.0078 1.0586 0.94141 0.58984-0.066406 0.3125-0.89453 0.67969-1.2461 0.89844 0.23047 1.0195 1.2891 2.3398 0.94141 0.26172-0.070313 0.5625-0.21484 0.86719-0.33984 0.31641-0.12891 0.67188-0.17188 0.90625-0.26562 0.37891-0.15234 0.55859-0.57422 0.94141-0.64062 0.47656-0.085937 0.9375 0.14453 0.98047 0.37891 0.078125 0.41406-0.46484 0.70312-0.67969 1.0195-0.16016 0.23438-0.23438 0.54297-0.41406 0.79297-0.16406 0.22656-0.35938 0.41406-0.52734 0.67969-0.25781 0.40234-0.87891 1.1758-0.82812 1.6211 0.046875 0.42188 0.29688 0.76953 0.48828 1.3203 0.16406 0.47656 0.19922 1.0195 0.33984 1.4727 0.12109 0.39844 0.375 0.66406 0.45312 0.94141 0.10547 0.375 0.019531 0.91016 0.33984 0.98047 0.42578 0.097656 0.55078-0.51953 1.0938-0.60547 0.4375-0.066407 0.9375 0.070312 1.0195 0.41406 0.082031 0.34766-0.14453 0.50391-0.33984 0.82812-0.14453 0.23828-0.1875 0.58984-0.33984 0.79297-0.23828 0.3125-0.67969 0.39844-0.86719 0.67969-0.125 0.1875-0.27344 0.60938-0.26562 0.94141 0.011719 0.32812 0.24609 0.60547 0.22656 0.94141-0.03125 0.5625-0.6875 0.80859-0.82813 1.3594-0.082031 0.32031 0 0.69141-0.074218 0.98047-0.10156 0.39453-0.49219 0.45312-0.67969 0.79297-0.16797 0.30078-0.027344 0.50781-0.22656 0.75391-0.46484 0.015626-0.62891-0.48828-1.0586-0.56641-0.33203-0.0625-0.74609 0.14062-1.207 0.14844-0.54688 0.011718-1.082-0.36328-1.5078-0.37891-0.44141-0.015626-0.91016 0.37109-1.3203 0.30078-0.29688-0.050781-0.29688-0.25781-0.52734-0.52734-0.17969-0.20312-0.46094-0.35156-0.56641-0.48828-0.36328-0.47656-0.38281-1.1992-1.3945-1.0586-0.43359 0.0625-1.1406 0.63281-1.1719 1.0195-0.03125 0.42578 0.39062 0.74219 0.64062 1.1719 0.23828 0.40625 0.62891 0.75 0.56641 1.2812-0.10547 0.87109-1.2734 1.0234-1.8867 1.3594-0.52344 0.28516-1.0273 1.1055 0.14844 1.0195 0.58984-0.042968 1.8398-1.0273 2.4531-0.30078 0.1875 0.22656 0.11328 0.64844 0.14844 1.1328 0.023438 0.33594 0.12891 0.52734 0.11328 0.75391-0.03125 0.47656-0.36328 0.68359-0.41406 1.0938-0.039063 0.32812 0.066406 0.66797 0.039062 0.98047-0.09375 1.0469-0.80469 2.0391-1.6992 2.4883-0.49219 0.24609-1.1133 0.47656-1.6953 0.60547-0.36719 0.082031-0.78125 0.0625-1.1719 0.1875-0.46094 0.14844-0.875 0.53125-1.3203 0.60547-0.30078 0.050781-0.68359-0.066407-0.94141-0.039063-0.25 0.027344-1.4922 0.55469-1.5469 0.82812-0.089843 0.45312 0.43359 0.51172 0.45312 0.94141 0.019532 0.44531-0.44141 0.625-0.45312 0.94141-0.011719 0.32813 0.3125 0.5625 0.48828 0.79297 0.1875 0.23828 0.33984 0.54297 0.64063 0.60547 0.41016 0.082031 0.96875-0.074219 1.3203-0.1875 0.375-0.12109 0.59766-0.42188 0.94141-0.48828 0.71484-0.14453 1.2539 0.17188 1.6602 0.56641 0.089844 0.085937 0.44141 0.32031 0.48828 0.56641 0.054687 0.27344-0.30469 0.42188-0.22656 0.79297 0.16016 0.76172 1.7969 0.070312 2.2266 0.11328 0.60547 0.058594 0.73047 0.89844 0.94141 1.2812 0.19531 0.35938 0.80078 1.0898 1.207 1.3203 0.35156 0.20312 1.1484 0.44531 1.6953 0.30078 0.58594-0.15234 0.76953-0.71875 1.3203-0.94141 0.23047-0.09375 2.0664-0.38281 2.1875 0 0.11719 0.375-0.76562 0.75781-1.0195 0.94141-0.39453 0.28906-0.83984 0.60938-1.0586 0.90625-0.21875 0.30078-0.19141 0.83203-0.64062 1.0586-0.38281 0.19141-1.5352 0.18359-2 0.039062-0.3125-0.097656-0.64062-0.36328-1.0586-0.52734-0.73437-0.29297-1.582-0.5-2.6016-0.56641-0.51953-0.03125-1.1328-0.11328-1.5117 0.11328-0.62109 0.37891-0.36328 1.3906-1.168 1.5859-0.41406 0.10156-0.77344-0.10547-1.0586-0.039062-0.71484 0.17187-0.63281 1.1836-0.94141 1.7734-0.16797 0.31641-0.55469 0.625-0.90625 0.90625-0.38281 0.30469-0.75391 0.625-1.0586 0.75391-0.42578 0.18359-0.89844 0.23438-1.2461 0.52734-0.25391 0.21875-0.38281 0.54688-0.60547 0.79297-0.17969 0.20312-0.47656 0.40234-0.71875 0.64062-0.47656 0.46875-1.1992 1.0586-2 1.168-0.32031 0.042968-0.92578-0.019532-1.1719 0.039062-0.47656 0.11328-1.3711 0.93359-0.67969 1.2461 0.53125 0.23828 0.69141-0.27344 1.168-0.26562 0.46875 0.007812 0.84766 0.39844 0.98047 0.60547 0.16797 0.25781 0.15625 0.86719 0.60547 0.94141 0.69922 0.11719 0.85547-0.79297 1.1719-1.1328 0.37109-0.39844 1.0781-0.53516 1.6602-0.82812 0.33984-0.17188 0.57422-0.66016 1.0195-0.71875 0.21484-0.027344 0.51953 0.085938 0.86719 0.11328 0.43359 0.03125 0.92969-0.0625 1.207-0.035157 0.71875 0.066407 1.4375 0.57812 1.9609 0.90625 0.21484 0.13672 0.47656 0.17578 0.67969 0.30078 0.48047 0.30078 0.51953 0.85156 1.2812 0.79297 0.34375-0.027343 1.3672-0.79688 1.5078-1.0586 0.14844-0.27344 0.10938-0.62109 0.22656-0.94141 0.32422-0.88672 0.67188-1.1016 1.5469-1.4727 0.23047-0.097656 0.43359-0.24609 0.64062-0.30078 0.30859-0.082032 0.71875-0.0625 1.0938-0.074219 0.57422-0.019531 0.98047-0.11328 1.3945 0 0.46094 0.125 0.82422 0.41406 1.1328 0.67969 0.30469 0.26172 0.58203 0.68359 0.98047 0.79297 0.24609 0.066407 0.60156-0.007812 0.90625 0.039063 0.74609 0.11328 1.418 0.70312 2.0352 0.64062 0.5-0.050781 0.64062-0.69531 1.0938-0.86719 0.31641-0.12109 1.1133-0.12891 1.4727 0 0.79297 0.28125 1.25 1.625 2.3398 1.6211 0.41016 0 0.95703-0.28516 0.98047-0.75391 0.03125-0.61328-0.67969-0.47656-0.67969-1.1328 0.29688-0.070312 0.57422 0.11328 0.86719 0.1875 0.30469 0.074219 0.63281 0.089844 0.94141 0.1875 0.33594 0.10547 0.61719 0.41406 0.94141 0.45312 0.36328 0.042969 0.72656-0.15234 1.0938-0.1875 0.72656-0.066406 1.668-0.082031 2.3398 0 0.34375 0.042969 0.63281 0.26562 0.98047 0.37891 0.20312 0.066406 0.49609 0.10937 0.75391 0.1875 0.58984 0.18359 1.0039 0.5625 1.5117 0.52734 0.34766-0.023437 0.73828-0.39844 1.1328-0.52734 0.33984-0.11328 0.875-0.097657 1.3555-0.22656 0.46875-0.125 0.79688-0.46094 1.1328-0.48828 0.28516-0.027344 0.58203 0.14062 0.86719 0.074218 0.45703-0.10156 0.60156-0.84766 1.0195-1.0938 0.60547-0.35937 1.6602-0.26562 2.1133-0.71875 0.49609-0.49609 0.33203-1.6016 0.48828-2.2266-0.52344-0.64062-1.6914-0.12891-2.4531-0.33984-0.40234-0.11328-0.61328-0.48438-0.90625-0.67969-0.30859-0.20312-1.1836-0.54297-1.1328-0.94141 0.046875-0.35937 0.89453-0.27734 1.207-0.41406 0.28906-0.12891 0.54687-0.38672 0.67969-0.71875 0.17578-0.44141 0.011719-1.1719 0.37891-1.3945 0.28125-0.17188 0.80859 0.003906 1.1328-0.074219 0.65234-0.16016 0.73047-0.69922 1.1328-1.207 0.59375-0.74609 1.5547-1.1055 2-1.7734 0.30469-0.45312 0.31641-1.0312 0.52734-1.5469 0.14062-0.34375 0.39844-0.67188 0.56641-1.0195 0.19141-0.39844 0.27734-0.84766 0.45312-1.1328v-1.168c-0.28125-1.1133-0.71484-1.7695-1.5039-2.5742zm-42.105-52.254c0.23828-0.058594 0.53906-1.1289 0.67969-1.6211 0.074218-0.26172 0.10938-0.63281 0.1875-0.82812 0.16016-0.39453 0.48828-0.78906 0.71875-1.168 0.32812-0.54688 1.0078-1.8945-0.15234-1.7734-0.33594 0.035156-1.0195 0.085937-1.1719 0.49219-0.09375 0.25391 0.082031 0.65234 0.074219 0.90625-0.015625 0.6875-0.69922 1.9805-0.86719 2.8281-0.10547 0.5625-0.003906 1.2969 0.53125 1.1641zm2 16.336c0.4375 0.19141 1.0117 0.015625 1.2422-0.26562 0.19531-0.23438 0.16016-0.58594 0.30078-0.86719 0.11719-0.23047 0.43359-0.37891 0.67969-0.60547 0.23438-0.21094 0.43359-0.49609 0.60547-0.71875 0.41406-0.52734 0.91406-0.94531 0.98047-1.6211-1.0391-0.23828-1.3594 1.125-2.1133 1.207-0.75391 0.082032-1.5078 0.0625-1.9609 0.30078-0.25 0.13281-0.67188 0.8125-0.56641 1.168 0.082031 0.28125 0.57812 0.23438 0.71875 0.60547 0.097656 0.26562-0.050781 0.46484 0.11328 0.79688zm-8.4141 12.562c0.12891-0.22266 0.13672-0.48047 0.26562-0.67969 0.23828-0.37109 0.6875-0.65234 1.0586-0.60547 0.74219 0.10156 0.52734 1.2305 0.79297 1.8867 0.14844 0.37109 0.57422 0.57422 0.64062 0.90625 0.058594 0.28516-0.042968 0.73047 0.035156 0.90625 0.12891 0.27344 0.80859 0.47656 1.2812 0.45312 0.25391-0.011719 0.44531-0.18359 0.71875-0.14844 0.59375 0.066406 0.64453 0.71875 1.2812 0.75391 1.0469 0.058594 1.1016-1.332 1.7734-1.5469 0.27344-0.085938 0.74219 0.078124 1.1328 0 0.65234-0.13281 1.3281-1.1289 1.4727-1.8867 0.11328-0.60938 0.054687-1.7617-0.41406-2.1484-0.32422-0.26953-0.70312-0.09375-1.1328-0.48828 0.17969-0.48047 0.71875-0.46094 0.79297-0.98047 0.089844-0.60938-0.51562-1.0352-0.71875-1.4727-0.23047-0.49609-0.41797-1.2344-0.45312-1.7344-0.027344-0.40625 0.10156-0.83984 0-1.1328-0.12109-0.34766-0.48047-0.4375-0.90625-0.60547-0.41016-0.16406-0.77734-0.39062-1.0938-0.45312-0.71484-0.14453-1.3125 0.22266-2.0352 0.22656-0.26953 0-0.53516-0.10156-0.75391-0.074218-0.54688 0.066406-0.74219 0.77734-1.2461 0.82812-0.48828 0.050782-0.69922-0.23047-1.1328-0.1875-0.73047 0.070313-1.0312 0.92969-1.3555 1.4336-0.25781 0.39453-0.64062 0.92188-1.1328 1.0938-0.47656 0.16406-1.3555 0.019532-1.6602 0.26562-0.11328 0.33984 0.14062 0.53906 0.074219 0.94141-0.42969 0.66016-2.0547 0.26953-2.1484 1.2422-0.0625 0.625 0.62109 1.3477 0.82813 1.8125 0.09375 0.20703 0.16016 0.53516 0.26562 0.67969 0.12891 0.17578 0.41797 0.24609 0.67969 0.45313 0.32812 0.25781 0.53906 0.65234 0.82812 0.79297 0.96484 0.46484 1.8281 0.21094 2.2617-0.53125z" fill="#fff" fill-rule="evenodd"/>
</svg>
