<?xml version="1.0" encoding="UTF-8"?>
<svg width="1200pt" height="1200pt" version="1.1" viewBox="0 0 1200 1200" xmlns="http://www.w3.org/2000/svg">
 <path d="m600 806.25c-38.004-0.03125-75.266-10.551-107.68-30.398-32.41-19.852-58.711-48.262-76.008-82.102h-228.82v375c0.015625 14.914 5.9492 29.211 16.492 39.758 10.547 10.543 24.844 16.477 39.758 16.492h712.5c14.914-0.015625 29.211-5.9492 39.758-16.492 10.543-10.547 16.477-24.844 16.492-39.758v-375h-228.82c-17.297 33.84-43.598 62.25-76.008 82.102-32.41 19.848-69.672 30.367-107.68 30.398zm-112.5 75h187.5v37.5h-187.5zm-206.25 0h150v37.5h-150zm318.75 150h-318.75v-37.5h318.75zm206.25 0h-150v-37.5h150zm112.5 0h-56.25v-37.5h56.25zm0-112.5h-187.5v-37.5h187.5z"/>
 <path d="m600 768.75c44.754 0 87.676-17.777 119.32-49.426 31.648-31.648 49.426-74.57 49.426-119.32s-17.777-87.676-49.426-119.32c-31.648-31.648-74.57-49.426-119.32-49.426s-87.676 17.777-119.32 49.426c-31.648 31.648-49.426 74.57-49.426 119.32 0.050781 44.738 17.848 87.633 49.48 119.27 31.637 31.633 74.531 49.43 119.27 49.48zm-88.258-230.49 26.516-26.516 61.742 61.742 61.742-61.742 26.516 26.516-61.742 61.742 61.742 61.742-26.516 26.516-61.742-61.742-61.742 61.742-26.516-26.516 61.742-61.742z"/>
 <path d="m996.02 328.79-227.27-227.28v160.98c0.015625 14.914 5.9492 29.211 16.492 39.758 10.547 10.543 24.844 16.477 39.758 16.492h112.5v37.5h-112.5c-24.855-0.027344-48.684-9.9141-66.262-27.488-17.574-17.578-27.461-41.406-27.488-66.262v-186.14c-4.043-0.90234-8.1719-1.3594-12.316-1.3633h-475.18c-14.914 0.015625-29.211 5.9492-39.758 16.492-10.543 10.547-16.477 24.844-16.492 39.758v375h228.82c23.145-45.371 62.262-80.57 109.82-98.816 47.555-18.246 100.18-18.246 147.73 0 47.555 18.246 86.672 53.445 109.82 98.816h228.82v-137.68c0.039062-14.926-5.8906-29.25-16.477-39.773zm-602.27-10.043h-112.5v-37.5h112.5zm0-112.5v-37.5h56.25v37.5zm262.5 112.5h-206.25v-37.5h206.25zm0-112.5h-150v-37.5h150z"/>
</svg>
