<?xml version="1.0" encoding="UTF-8"?>
<svg width="1200pt" height="1200pt" version="1.1" viewBox="0 0 1200 1200" xmlns="http://www.w3.org/2000/svg">
 <path d="m851.9 878.44c7.3125 7.2656 19.172 7.2656 26.484-0.046875s7.3125-19.172 0.046875-26.484l-40.312-40.312c47.672-53.391 75.844-121.36 80.016-192.84h56.859c10.359 0 18.75-8.3906 18.75-18.75s-8.3906-18.75-18.75-18.75h-56.859c-4.1719-71.484-32.344-139.45-80.016-192.84l40.312-40.312c7.2656-7.3125 7.2656-19.172-0.046875-26.484s-19.172-7.3125-26.484-0.046876l-40.312 40.312c-53.391-47.672-121.36-75.844-192.84-80.016v-56.859c0-10.359-8.3906-18.75-18.75-18.75s-18.75 8.3906-18.75 18.75v56.859c-71.484 4.1719-139.45 32.344-192.84 80.016l-40.312-40.312c-7.3125-7.2656-19.172-7.2656-26.484 0.046876s-7.3125 19.172-0.046875 26.484l40.312 40.312c-47.672 53.391-75.844 121.36-80.016 192.84h-56.859c-10.359 0-18.75 8.3906-18.75 18.75s8.3906 18.75 18.75 18.75h56.859c4.1719 71.484 32.344 139.45 80.016 192.84l-40.312 40.312c-3.5156 3.5156-5.4844 8.2969-5.4844 13.266s1.9688 9.75 5.4844 13.266 8.2969 5.4844 13.266 5.4844 9.75-1.9688 13.266-5.4844l40.312-40.312c53.391 47.672 121.36 75.844 192.84 80.016v56.859c0 10.359 8.3906 18.75 18.75 18.75s18.75-8.3906 18.75-18.75v-56.859c71.484-4.1719 139.45-32.344 192.84-80.016zm-251.9 2.8125c-74.578 0-146.11-29.625-198.89-82.359-52.734-52.781-82.359-124.31-82.359-198.89s29.625-146.11 82.359-198.89c52.781-52.734 124.31-82.359 198.89-82.359s146.11 29.625 198.89 82.359c52.734 52.781 82.359 124.31 82.359 198.89-0.09375 74.578-29.766 146.06-82.453 198.79-52.734 52.688-124.22 82.359-198.79 82.453z"/>
 <path d="m600 656.26c-31.031-0.046874-56.203-25.219-56.25-56.25 0-10.359-8.3906-18.75-18.75-18.75s-18.75 8.3906-18.75 18.75c0.046875 51.75 42 93.703 93.75 93.75 10.359 0 18.75-8.3906 18.75-18.75 0-10.359-8.3906-18.75-18.75-18.75z"/>
 <path d="m806.26 562.5c-10.359 0-18.75 8.3906-18.75 18.75h-19.875c-3.5156-31.641-15.984-61.641-35.906-86.438l14.109-14.109v-0.046875c7.3594 7.3125 19.172 7.3125 26.484 0s7.3594-19.172 0.046876-26.484l-26.531-26.531c-7.3125-7.3125-19.172-7.3125-26.484 0-7.3594 7.3125-7.3594 19.172 0 26.531l-14.156 14.109c-24.797-19.922-54.797-32.391-86.438-35.906v-19.875c10.359 0 18.75-8.3906 18.75-18.75s-8.3906-18.75-18.75-18.75h-37.5c-10.359 0-18.75 8.3906-18.75 18.75s8.3906 18.75 18.75 18.75v19.875c-31.641 3.5156-61.641 15.984-86.438 35.906l-14.156-14.109c7.3125-7.3594 7.3125-19.172 0-26.484s-19.172-7.3125-26.484-0.046875l-26.531 26.531c-7.3125 7.3125-7.3125 19.172 0 26.484 7.3125 7.3594 19.172 7.3594 26.531 0l14.109 14.156c-19.922 24.797-32.391 54.797-35.906 86.438h-19.875c0-10.359-8.3906-18.75-18.75-18.75-10.359 0-18.75 8.3906-18.75 18.75v37.5c0 10.359 8.3906 18.75 18.75 18.75 10.359 0 18.75-8.3906 18.75-18.75h19.875c3.5156 31.641 15.984 61.641 35.906 86.438l-14.109 14.109v0.046875c-3.5156-3.5625-8.2969-5.5312-13.266-5.5312-5.0156 0-9.75 1.9688-13.312 5.4844-3.5156 3.5156-5.4844 8.2969-5.4844 13.266 0 5.0156 2.0156 9.75 5.5312 13.266l26.531 26.531c3.5156 3.5156 8.2969 5.5312 13.266 5.5312s9.75-1.9688 13.266-5.4844c3.5156-3.5625 5.4844-8.2969 5.4844-13.312 0-4.9688-1.9688-9.75-5.5312-13.266l14.156-14.109c24.797 19.922 54.797 32.391 86.438 35.906v19.875c-10.359 0-18.75 8.3906-18.75 18.75s8.3906 18.75 18.75 18.75h37.5c10.359 0 18.75-8.3906 18.75-18.75s-8.3906-18.75-18.75-18.75v-19.875c31.641-3.5156 61.641-15.984 86.438-35.906l14.109 14.109h0.046874c-3.5625 3.5156-5.5312 8.2969-5.5312 13.266 0 5.0156 1.9688 9.75 5.4844 13.312 3.5156 3.5156 8.2969 5.4844 13.266 5.4844s9.75-2.0156 13.266-5.5312l26.531-26.531c3.5156-3.5156 5.5312-8.25 5.5312-13.266 0-4.9688-1.9688-9.75-5.4844-13.266-3.5625-3.5156-8.2969-5.4844-13.312-5.4844-4.9688 0-9.75 1.9688-13.266 5.5312l-14.109-14.109v-0.046875c19.922-24.797 32.391-54.797 35.906-86.438h19.875c0 10.359 8.3906 18.75 18.75 18.75 10.359 0 18.75-8.3906 18.75-18.75v-37.5c0-10.359-8.3906-18.75-18.75-18.75zm-206.26 168.74c-53.062 0-100.92-31.969-121.26-81-20.297-49.078-9.0938-105.52 28.453-143.06 37.547-37.547 93.984-48.75 143.06-28.453 49.031 20.344 81 68.203 81 121.26-0.09375 72.469-58.781 131.16-131.26 131.26z"/>
 <path d="m618.74 506.26c-22.734 0-43.266 13.688-51.984 34.734-8.6719 21-3.8906 45.188 12.188 61.312 16.125 16.078 40.312 20.859 61.312 12.188 21.047-8.7188 34.734-29.25 34.734-51.984-0.046876-31.031-25.219-56.203-56.25-56.25zm0 75c-7.5938 0-14.438-4.5469-17.344-11.578-2.8594-6.9844-1.2656-15.047 4.0781-20.438 5.3906-5.3438 13.453-6.9375 20.438-4.0781 7.0312 2.9062 11.578 9.75 11.578 17.344 0 10.359-8.3906 18.75-18.75 18.75z"/>
 <path d="m684.37 84.375c0-34.125-20.578-64.875-52.078-77.953-31.547-13.078-67.828-5.8594-91.969 18.281s-31.359 60.422-18.281 91.969c13.078 31.5 43.828 52.078 77.953 52.078 46.594-0.046875 84.328-37.781 84.375-84.375zm-131.26 0c0-18.938 11.438-36.047 28.922-43.312 17.531-7.2656 37.688-3.2344 51.094 10.172s17.438 33.562 10.172 51.094c-7.2656 17.484-24.375 28.922-43.312 28.922-25.875-0.046875-46.828-21-46.875-46.875z"/>
 <path d="m515.63 1115.6c0 34.125 20.578 64.875 52.078 77.953 31.547 13.078 67.828 5.8594 91.969-18.281s31.359-60.422 18.281-91.969c-13.078-31.5-43.828-52.078-77.953-52.078-46.594 0.046875-84.328 37.781-84.375 84.375zm131.26 0c0 18.938-11.438 36.047-28.922 43.312-17.531 7.2656-37.688 3.2344-51.094-10.172s-17.438-33.562-10.172-51.094c7.2656-17.484 24.375-28.922 43.312-28.922 25.875 0.046875 46.828 21 46.875 46.875z"/>
 <path d="m1024.3 175.74c-24.141-24.094-60.375-31.312-91.922-18.234-31.5 13.031-52.031 43.781-52.031 77.906 0 34.078 20.531 64.828 52.031 77.906 31.547 13.031 67.781 5.8594 91.922-18.234 32.906-33 32.906-86.391 0-119.34zm-26.531 92.812c-13.406 13.406-33.516 17.391-51.047 10.125-17.484-7.2656-28.922-24.328-28.922-43.266s11.438-36.047 28.922-43.312c17.484-7.2188 37.641-3.2344 51.047 10.172 18.281 18.281 18.281 47.953 0 66.281z"/>
 <path d="m175.74 1024.3c24.141 24.141 60.422 31.359 91.969 18.281 31.5-13.031 52.078-43.828 52.078-77.953s-20.578-64.875-52.078-77.953c-31.547-13.031-67.828-5.8125-91.969 18.281-15.891 15.797-24.844 37.266-24.844 59.672s8.9531 43.875 24.844 59.672zm26.531-92.812c13.406-13.406 33.562-17.391 51.094-10.172 17.484 7.2656 28.922 24.375 28.922 43.312 0 18.984-11.438 36.047-28.969 43.312-17.484 7.2656-37.641 3.2344-51.047-10.172-8.9062-8.7188-13.875-20.672-13.875-33.141s5.0156-24.375 13.875-33.141z"/>
 <path d="m964.6 1048.9c40.219 0 74.859-28.453 82.688-67.922s-13.312-78.938-50.484-94.312c-37.219-15.375-80.062-2.3438-102.38 31.078-22.359 33.469-17.953 78.047 10.5 106.5 15.844 15.844 37.312 24.703 59.672 24.656zm-33.141-117.47c13.406-13.406 33.562-17.391 51.094-10.172 17.531 7.2656 28.922 24.375 28.922 43.312 0 18.984-11.391 36.047-28.922 43.312s-37.688 3.2344-51.094-10.172c-8.8594-8.7188-13.875-20.672-13.875-33.141s5.0156-24.375 13.875-33.141z"/>
 <path d="m235.4 319.74c40.219-0.046875 74.812-28.453 82.641-67.922s-13.312-78.984-50.484-94.359-80.016-2.3438-102.38 31.125c-22.312 33.469-17.906 78.047 10.547 106.5 15.797 15.797 37.266 24.703 59.672 24.656zm-33.141-117.47c13.406-13.406 33.562-17.438 51.047-10.172 17.531 7.2656 28.969 24.328 28.969 43.312 0 18.938-11.438 36.047-28.922 43.312-17.531 7.2656-37.688 3.2344-51.094-10.172-18.281-18.328-18.281-47.953 0-66.281z"/>
 <path d="m1115.6 515.63c-34.125 0-64.875 20.578-77.953 52.078-13.078 31.547-5.8594 67.828 18.281 91.969s60.422 31.359 91.969 18.281c31.5-13.078 52.078-43.828 52.078-77.953-0.046875-46.594-37.781-84.328-84.375-84.375zm0 131.26c-18.938 0-36.047-11.438-43.312-28.922-7.2656-17.531-3.2344-37.688 10.172-51.094s33.562-17.438 51.094-10.172c17.484 7.2656 28.922 24.375 28.922 43.312-0.046875 25.875-21 46.828-46.875 46.875z"/>
 <path d="m168.74 600c0-34.125-20.578-64.875-52.078-77.953-31.547-13.078-67.828-5.8594-91.969 18.281-24.141 24.141-31.359 60.422-18.281 91.969 13.078 31.5 43.828 52.078 77.953 52.078 46.594-0.046875 84.328-37.781 84.375-84.375zm-131.26 0c0-18.938 11.438-36.047 28.922-43.312 17.531-7.2656 37.688-3.2344 51.094 10.172s17.438 33.562 10.172 51.094c-7.2656 17.484-24.375 28.922-43.312 28.922-25.875-0.046875-46.828-21-46.875-46.875z"/>
</svg>
