<?xml version="1.0" encoding="UTF-8"?>
<svg width="1200pt" height="1200pt" version="1.1" viewBox="0 0 1200 1200" xmlns="http://www.w3.org/2000/svg">
 <path d="m540.12 531.16c0 25.547 26.305 45.566 59.879 45.566s59.879-20.02 59.879-45.566c0-21.391-23.871-74.18-59.879-74.18-36.008 0.003907-59.879 52.789-59.879 74.18zm59.879-41.164c10.379 0 26.871 29.547 26.871 41.168 0 4.4336-10.203 12.555-26.871 12.555s-26.871-8.125-26.871-12.555c0-11.625 16.492-41.168 26.871-41.168z" fill="#fff"/>
 <path d="m686.73 446.63c15.879 0 31.109-6.3047 42.336-17.531 11.23-11.227 17.543-26.457 17.543-42.336 0.003907-15.879-6.3047-31.109-17.531-42.336-11.227-11.23-26.453-17.543-42.332-17.543-15.879-0.003907-31.109 6.3047-42.34 17.531-11.23 11.227-17.539 26.453-17.543 42.332 0.023437 15.871 6.3359 31.09 17.559 42.312 11.219 11.227 26.434 17.543 42.309 17.57zm0-86.734c7.125-0.003907 13.957 2.8281 18.996 7.8633 5.0391 5.0391 7.8711 11.871 7.8711 18.996 0.003907 7.125-2.8281 13.957-7.8672 18.996-5.0391 5.0391-11.871 7.8672-18.996 7.8672s-13.957-2.832-18.996-7.8711c-5.0352-5.0391-7.8633-11.875-7.8633-19 0.011719-7.1172 2.8438-13.941 7.875-18.977 5.0352-5.0352 11.859-7.8672 18.98-7.875z" fill="#fff"/>
 <path d="m453.39 577.8v25.789c0.027343 27.371 10.914 53.613 30.27 72.969s45.598 30.242 72.969 30.273h86.75c27.371-0.03125 53.613-10.918 72.969-30.273s30.242-45.598 30.27-72.969v-25.789c50.961-31.84 90.172-79.398 111.71-135.5 21.535-56.094 24.23-117.68 7.668-175.44-16.559-57.762-51.473-108.56-99.461-144.73-47.988-36.164-106.44-55.723-166.53-55.723s-118.54 19.559-166.53 55.723c-47.988 36.164-82.902 86.965-99.461 144.73-16.562 57.762-13.867 119.34 7.668 175.44 21.539 56.098 60.75 103.66 111.71 135.5zm146.61-478.13c53.629-0.035156 105.77 17.629 148.33 50.258 42.562 32.629 73.164 78.395 87.055 130.2 13.891 51.797 10.297 106.73-10.23 156.28-20.523 49.547-56.832 90.93-103.29 117.73l-8.2695 4.7695v44.68l0.003907 0.003906c-0.023438 18.621-7.4297 36.469-20.598 49.633-13.164 13.168-31.016 20.574-49.633 20.598h-86.75c-18.617-0.023438-36.469-7.4297-49.633-20.598-13.168-13.164-20.574-31.012-20.598-49.633v-44.68l-8.2695-4.7695 0.003906-0.003906c-46.453-26.801-82.762-68.184-103.29-117.73-20.527-49.547-24.121-104.48-10.23-156.28 13.891-51.801 44.492-97.566 87.055-130.2 42.559-32.629 94.703-50.293 148.33-50.258z" fill="#fff"/>
 <path d="m513.27 446.63c15.879-0.003906 31.105-6.3125 42.332-17.543 11.227-11.227 17.535-26.457 17.535-42.332-0.003906-15.879-6.3086-31.109-17.539-42.336-11.227-11.227-26.453-17.535-42.332-17.535-15.879 0-31.105 6.3047-42.336 17.531-11.227 11.227-17.539 26.453-17.539 42.332 0.015625 15.875 6.332 31.098 17.555 42.324 11.227 11.227 26.449 17.539 42.324 17.559zm0-86.734c7.125 0 13.957 2.832 18.992 7.8711 5.0352 5.0391 7.8633 11.875 7.8633 19-0.003906 7.1211-2.8359 13.953-7.875 18.988-5.0391 5.0391-11.871 7.8672-18.996 7.8633-7.125 0-13.957-2.8359-18.992-7.875-5.0352-5.0391-7.8633-11.871-7.8594-18.996 0.003906-7.1211 2.8359-13.953 7.875-18.988 5.0391-5.0352 11.871-7.8633 18.992-7.8633z" fill="#fff"/>
 <path d="m930.34 926.43c-14.188-7.1484-30.652-8.3047-45.695-3.207l-46.488 15.457-104.38-52.242 104.38-52.242 46.504 15.473v0.003906c15.07 4.7891 31.414 3.5078 45.555-3.5703 14.145-7.0781 24.965-19.391 30.168-34.324 4.9922-15.066 3.8047-31.5-3.2969-45.691-7.1055-14.195-19.547-24.996-34.598-30.035l-13.281-4.418 4.4336-13.281v0.003906c6.75-20.301 2.1562-42.66-12.051-58.652-14.203-15.996-35.863-23.195-56.816-18.891-20.953 4.3047-38.02 19.461-44.77 39.762l-15.488 46.535-184.51 92.375-184.51-92.375-15.488-46.535c-5.0039-15.078-15.793-27.551-29.996-34.672-14.199-7.1211-30.648-8.3047-45.727-3.293-15.074 5.0156-27.539 15.812-34.648 30.02-7.1133 14.203-8.2852 30.652-3.2656 45.727l4.4336 13.281-13.281 4.418c-15.051 5.0352-27.492 15.836-34.594 30.031-7.1055 14.195-8.293 30.625-3.3008 45.691 5.2188 14.922 16.039 27.223 30.172 34.297 14.133 7.0781 30.465 8.375 45.535 3.6172l46.52-15.488 104.38 52.242-104.38 52.242-46.469-15.457v-0.007813c-15.07-5.0469-31.531-3.8867-45.746 3.2227-14.215 7.1094-25.012 19.586-30.012 34.672-4.9883 15.066-3.8008 31.496 3.3008 45.688 7.1055 14.191 19.543 24.988 34.594 30.023l13.281 4.418-4.4336 13.297c-5.0117 15.051-3.8398 31.48 3.2617 45.672 7.0977 14.188 19.547 24.977 34.602 29.988 15.078 4.8086 31.438 3.5352 45.59-3.543 14.156-7.0781 24.984-19.406 30.184-34.352l15.488-46.52 184.51-92.375 184.51 92.375 15.488 46.52c3.9531 11.945 11.57 22.34 21.77 29.703 10.203 7.3672 22.465 11.328 35.047 11.316 19.242-0.003906 37.309-9.2539 48.566-24.859 11.254-15.605 14.324-35.668 8.2539-53.926l-4.4336-13.297 13.281-4.418c15.066-5.0273 27.52-15.832 34.621-30.039 7.1016-14.207 8.2734-30.652 3.25-45.723-5.0195-15.07-15.816-27.527-30.02-34.637zm-18.262 79.062-44.617 14.863 14.844 44.602v-0.003907c2.2539 6.7695 1.7227 14.156-1.4805 20.531-3.2031 6.375-8.8125 11.215-15.59 13.445-6.7539 2.1641-14.086 1.5898-20.426-1.5977-6.3359-3.1836-11.172-8.7266-13.473-15.438l-19.809-59.512-211.52-105.88-211.52 105.88-19.809 59.512c-2.2305 6.7812-7.0664 12.398-13.441 15.605-6.3789 3.2109-13.77 3.7461-20.543 1.4961-6.7734-2.25-12.371-7.1055-15.559-13.496-3.1875-6.3867-3.6992-13.777-1.4258-20.543l14.844-44.602-44.617-14.863h0.003907c-6.7539-2.2656-12.336-7.1172-15.516-13.496-3.1797-6.375-3.6992-13.75-1.4453-20.508 2.25-6.7617 7.0938-12.352 13.461-15.543 6.3594-3.2148 13.75-3.7188 20.488-1.4023l59.477 19.793 175.6-87.895-175.6-87.863-59.496 19.793c-9.1055 3.0312-19.141 0.97656-26.316-5.3945-7.1797-6.3711-10.418-16.09-8.4883-25.492 1.9297-9.4023 8.7266-17.062 17.832-20.098l44.617-14.828-14.844-44.617c-2.2852-6.7695-1.7812-14.168 1.4023-20.566 3.1836-6.3945 8.7852-11.258 15.562-13.516 6.7812-2.2539 14.18-1.7148 20.559 1.5 6.3828 3.2109 11.219 8.8359 13.445 15.625l19.809 59.527 211.52 105.88 211.52-105.88 19.809-59.527 0.003907 0.003907c2.2383-6.8125 7.125-12.434 13.555-15.605 6.3359-3.1914 13.695-3.6953 20.406-1.3867 6.7578 2.2422 12.352 7.0781 15.539 13.445 3.1914 6.3711 3.7188 13.742 1.4648 20.5l-14.844 44.617 44.617 14.828c9.0742 3.0586 15.836 10.715 17.746 20.102 1.9102 9.3828-1.3203 19.074-8.4805 25.434-7.1562 6.3633-17.16 8.4297-26.258 5.4336l-59.477-19.777-175.6 87.863 175.6 87.895 59.527-19.809v-0.003906c6.75-2.2656 14.129-1.7461 20.496 1.4492 6.3633 3.1914 11.195 8.7891 13.418 15.559 2.2422 6.7539 1.7148 14.121-1.4688 20.488-3.1797 6.3672-8.7578 11.211-15.504 13.473z" fill="#fff"/>
</svg>
