<?xml version="1.0" encoding="UTF-8"?>
<svg width="1200pt" height="1200pt" version="1.1" viewBox="0 0 1200 1200" xmlns="http://www.w3.org/2000/svg">
 <path d="m522.71 332.14c-93.75-0.71094-203.1-12.488-257.81-12.488-54.676 0-86.324 15.227-120.3 21.676-33.973 6.4492-60.934 30.488-60.336 64.465 0 0-1.1641 42.188 2.3633 83.211 3.5234 41.023 21.676 129.45 7.6133 171.68-14.062 42.188-12.301 38.625-12.898 55.613-0.60156 16.988-6.4492 160.01-8.2109 183.86-1.7617 24.148 9.375 31.051 11.738 41.137 2.3633 10.012-11.738 28.727 11.137 35.738 22.875 7.0117 52.727 2.8516 52.727 2.8516s-18.148-30.977-22.836-43.949c-4.6875-12.898-4.7266-99.523 3.4883-132.34 8.2109-32.812 12.898-45.75 21.113-56.887 8.2109-11.137 14.664-21.676 14.664-21.676s16.426 40.426 32.211 93.75c15.789 53.324 29.289 86.738 29.289 91.988s14.664 2.3633 14.664 2.3633-1.7617 21.676 8.2109 26.363c9.9766 4.6875 52.727 11.137 64.461 7.0508 11.738-4.0859-29.289-37.5-41.023-53.926-11.738-16.426-42.789-90.227-39.262-119.55 3.5234-29.324 11.137-77.363 11.137-77.363s4.0859 12.898 16.426 13.352c0 0 1.1641 26.324 7.0508 25.199 5.8867-1.0508 10.539-1.0508 13.461-27 2.9258-25.801-0.60156-2.3633-0.60156-2.3633s6.4492 8.7734 9.9766 9.375c3.5234 0.67578 0 22.352 9.9766 22.352 9.9766 0 12.301-11.738 12.301-26.363 0 0 11.738 2.3633 28.727-11.738 16.988-14.102 18.75-19.352 18.75-19.352s45.711 42.188 91.988 41.512c46.273-0.67578 108.41-6.5234 150-18.75 41.551-12.301 83.738-22.352 83.211-7.0508-0.5625 15.074 1.1641 96.602-0.63672 133.01-1.7617 36.336-11.738 67.387-5.2891 68.551 6.4492 1.0117 8.6641 3.9375 8.6641 3.9375s-5.8516 25.801 11.137 29.887 48 4.0859 48 4.0859-5.8125-28.727-22.801-42.188c0 0-0.63672-82.051 1.875-98.438 2.3633-16.426 11.137-39.262 11.137-39.262s8.2109 29.887 16.988 55.086c8.6641 25.199 2.3633 103.12 7.0508 116.02 4.6875 13.051 19.836 16.426 19.836 16.426s-0.67578 16.988 0.67578 18.75 63.301 10.012 67.988 7.0508c4.6875-3-21.113-36.375-33.449-46.273-12.336-9.9766-15.188-28.125-16.988-62.699-1.7617-34.574 2.9258-57.414 2.3633-88.461-0.60156-31.051-9.9766-53.926 4.0859-55.086 14.062-1.1641 46.125-15.227 70.312-52.727 24.039-37.5 22.688-78.523 44.961-106.05 22.426-27.523 77.926-65.625 116.51-68.551 38.586-2.9258 99.523-1.7617 117.19 4.0859 0 0 11.773 1.7617 16.914 1.7617 5.3984 0 12.301-2.9258 15.227-8.7734 2.9258-5.8516 4.6875-8.2109 7.0508-10.539 2.3633-2.3242 8.7383-7.0508 1.125-19.352-7.6133-12.301-57.375-77.926-66.75-100.2s-8.8125-24.523-15.938-31.574c-7.0508-7.0508-11.137-23.438-26.363-29.887-15.188-6.4492-42.789-5.2891-51.562 3.5234-8.6992 8.8125-13.387 24.039-13.387 24.039-0.015624 0-8.75-22.125-43.289-27.375 0 0-6.4492 21.113 4.0508 39.262 0 0-92.625 9.9766-142.39-1.7617-49.801-11.738-75.602-19.914-107.81-19.914-32.215 0-182.7 21.113-209.89 20.887z"/>
</svg>
