<?xml version="1.0" encoding="UTF-8"?>
<svg width="100pt" height="100pt" version="1.1" viewBox="0 0 100 100" xmlns="http://www.w3.org/2000/svg">
 <g fill="#fff">
  <path d="m77.012 20.598h-10.906c-0.27734 0-0.5 0.22266-0.5 0.5v25.445c-3.4219-4.4844-8.2305-7.5977-13.738-8.8516v-18.188h0.43359c1.2773 0 2.3164-1.0391 2.3164-2.3164s-1.0391-2.3164-2.3164-2.3164l-11.562-0.003906c-1.2773 0-2.3164 1.0391-2.3164 2.3164s1.0391 2.3164 2.3164 2.3164h0.43359v18.184c-10.848 2.4688-18.684 12.242-18.684 23.414 0 0.87891 0.050781 1.7461 0.14453 2.6016v0.003906c0 0.007813 0.003907 0.011719 0.003907 0.015625 1.3086 12.023 11.52 21.41 23.887 21.41 7.7734 0 14.691-3.7109 19.086-9.4531v0.15234c0 3.6055 2.6719 6.5391 5.9531 6.5391 1.5977 0 3.1016-0.6875 4.2266-1.9336 1.1133-1.2344 1.7266-2.8672 1.7266-4.6055l-0.003906-42.117v-12.617c0-0.27344-0.22656-0.49609-0.5-0.49609zm-37.59-3.4141c0-0.72656 0.58984-1.3164 1.3164-1.3164h11.562c0.72656 0 1.3164 0.58984 1.3164 1.3164 0 0.72656-0.58984 1.3164-1.3164 1.3164h-0.93359-0.003907-0.003906-9.6875-0.003906-0.003907l-0.92578 0.003906c-0.72656 0-1.3164-0.59375-1.3164-1.3203zm2.3555 21.379c0.015625-0.003906 0.027344-0.015625 0.042968-0.019531 0.035157-0.011719 0.0625-0.023438 0.09375-0.039063 0.027344-0.015625 0.050782-0.03125 0.074219-0.050781 0.023438-0.019531 0.046875-0.042969 0.066407-0.070313 0.019531-0.023437 0.035156-0.050781 0.050781-0.078124 0.015625-0.027344 0.027343-0.058594 0.035156-0.089844 0.011719-0.03125 0.015625-0.0625 0.019531-0.097656 0.003906-0.015626 0.011719-0.03125 0.011719-0.046876l0.003906-18.566h8.6914v18.574c0 0.015625 0.007812 0.03125 0.011718 0.046875 0.003906 0.035156 0.011719 0.066406 0.019532 0.097656 0.011718 0.03125 0.019531 0.058594 0.035156 0.089844 0.015625 0.027344 0.03125 0.050781 0.054687 0.078125 0.019531 0.023437 0.042969 0.046875 0.066407 0.070313 0.023437 0.019531 0.050781 0.035156 0.074218 0.050781 0.03125 0.015625 0.0625 0.03125 0.09375 0.039062 0.015625 0.003907 0.027344 0.015625 0.042969 0.019531 5.9219 1.2422 11.047 4.7109 14.426 9.7695 2.5234 3.7812 3.8594 8.1953 3.8594 12.77 0 0.71094-0.035156 1.4102-0.10156 2.1055h-45.859c-0.0625-0.69141-0.10156-1.3945-0.10156-2.1055 0-10.848 7.6914-20.328 18.289-22.547zm4.7422 45.57c-11.645 0-21.293-8.6875-22.816-19.926h45.629c-1.5195 11.234-11.168 19.926-22.812 19.926zm28.523-4.3633c-0.93359 1.0312-2.1719 1.6055-3.4844 1.6055-2.7305 0-4.9531-2.4844-4.9531-5.5391v-1.5625c2.0352-3.0977 3.3789-6.6875 3.8008-10.551 0-0.007812 0.003906-0.007812 0.003906-0.015625v-0.003906c0.09375-0.85547 0.14453-1.7227 0.14453-2.6016 0-4.7188-1.3672-9.2734-3.9453-13.188l-0.003906-14.203v-12.117h9.9062v13.625h-6.4609c-0.27734 0-0.5 0.22266-0.5 0.5s0.22266 0.5 0.5 0.5h6.4609v7.1211h-2.9805c-0.27734 0-0.5 0.22266-0.5 0.5s0.22266 0.5 0.5 0.5h2.9805v8.8047l-6.4609-0.003906c-0.27734 0-0.5 0.22656-0.5 0.5 0 0.27734 0.22266 0.5 0.5 0.5h6.4609v9.0625h-2.9805c-0.27734 0-0.5 0.22656-0.5 0.5 0 0.27734 0.22266 0.5 0.5 0.5h2.9805v11.625c0 1.4922-0.52344 2.8906-1.4688 3.9414z"/>
  <path d="m55.551 59.055c2.168 0 3.9297-1.7656 3.9297-3.9336 0-2.1641-1.7656-3.9297-3.9297-3.9297-2.168 0-3.9297 1.7656-3.9297 3.9297-0.003906 2.168 1.7617 3.9336 3.9297 3.9336zm0-6.8633c1.6172 0 2.9297 1.3125 2.9297 2.9297 0 1.6172-1.3125 2.9336-2.9297 2.9336-1.6172 0-2.9297-1.3125-2.9297-2.9336-0.003906-1.6133 1.3125-2.9297 2.9297-2.9297z"/>
  <path d="m46.75 49.902c1.3711 0 2.4883-1.1172 2.4883-2.4883 0-1.3711-1.1172-2.4883-2.4883-2.4883s-2.4883 1.1172-2.4883 2.4883c0 1.3711 1.1133 2.4883 2.4883 2.4883zm0-3.9766c0.82031 0 1.4883 0.66797 1.4883 1.4883 0 0.82031-0.66797 1.4883-1.4883 1.4883s-1.4883-0.66797-1.4883-1.4883c0-0.82031 0.66797-1.4883 1.4883-1.4883z"/>
  <path d="m49.086 42.148c0.96094 0 1.7422-0.78125 1.7422-1.7422s-0.78125-1.7422-1.7422-1.7422c-0.96094 0-1.7422 0.78125-1.7422 1.7422 0 0.95703 0.78125 1.7422 1.7422 1.7422zm0-2.4883c0.41016 0 0.74219 0.33203 0.74219 0.74219s-0.33203 0.74219-0.74219 0.74219c-0.41016 0-0.74219-0.33203-0.74219-0.74219s0.33203-0.74219 0.74219-0.74219z"/>
  <path d="m45.656 33.496c0.76953 0 1.3945-0.625 1.3945-1.3945 0-0.76953-0.625-1.3945-1.3945-1.3945-0.76953-0.003906-1.3945 0.625-1.3945 1.3945 0 0.76563 0.625 1.3945 1.3945 1.3945zm0-1.793c0.21875 0 0.39453 0.17578 0.39453 0.39453s-0.17578 0.39453-0.39453 0.39453c-0.21875 0.003906-0.39453-0.17578-0.39453-0.39063 0-0.21875 0.17578-0.39844 0.39453-0.39844z"/>
  <path d="m48.648 29.039c0.71875 0 1.3047-0.58594 1.3047-1.3047s-0.58594-1.3047-1.3047-1.3047-1.3047 0.58594-1.3047 1.3047 0.58594 1.3047 1.3047 1.3047zm0-1.6094c0.16797 0 0.30469 0.13672 0.30469 0.30469s-0.13672 0.30469-0.30469 0.30469c-0.16797 0-0.30469-0.13672-0.30469-0.30469s0.13672-0.30469 0.30469-0.30469z"/>
 </g>
</svg>
