<?xml version="1.0" encoding="UTF-8"?>
<svg width="1200pt" height="1200pt" version="1.1" viewBox="0 0 1200 1200" xmlns="http://www.w3.org/2000/svg">
 <path d="m456.58 601.62v38.723c0.078125 25.336 10.176 49.613 28.09 67.527 17.914 17.914 42.191 28.012 67.523 28.086h95.617c25.332-0.074219 49.609-10.172 67.523-28.086 17.918-17.914 28.016-42.191 28.09-67.527v-38.723c54.684-31.57 97.422-80.305 121.59-138.64 24.164-58.336 28.402-123.02 12.059-184.01-16.344-60.988-52.355-114.89-102.45-153.32s-111.47-59.273-174.62-59.273-124.52 20.836-174.62 59.273-86.105 92.336-102.45 153.32c-16.344 60.992-12.105 125.68 12.059 184.01 24.164 58.336 66.902 107.07 121.59 138.64zm239.04-248.12c12.68 0 24.84 5.0352 33.805 14 8.9648 8.9688 14.004 21.129 14.004 33.805 0 12.68-5.0391 24.84-14.004 33.805-8.9648 8.9688-21.125 14.004-33.805 14.004-12.68 0-24.84-5.0352-33.805-14.004-8.9648-8.9648-14.004-21.125-14.004-33.805 0.039062-12.668 5.0859-24.805 14.043-33.762 8.9609-8.957 21.098-14.008 33.766-14.043zm-95.613 143.42c26.293 0 47.809 46.371 47.809 63.582 0 17.691-21.512 32.035-47.809 32.035-26.293 0-47.809-14.34-47.809-32.035 0-17.211 21.516-63.582 47.809-63.582zm-95.613-143.42c12.68 0 24.84 5.0352 33.805 14 8.9648 8.9688 14.004 21.129 14.004 33.805 0 12.68-5.0391 24.84-14.004 33.805-8.9648 8.9688-21.125 14.004-33.805 14.004-12.68 0-24.84-5.0352-33.805-14.004-8.9648-8.9648-14.004-21.125-14.004-33.805 0.039063-12.664 5.0859-24.805 14.043-33.762 8.9609-8.957 21.098-14.008 33.766-14.043z"/>
 <path d="m919.55 937.18-58.426 19.438-154.3-77.234 154.3-77.234 58.426 19.438c16.203 5.3945 34.055 1.7344 46.828-9.6016 12.777-11.332 18.531-28.621 15.105-45.352-3.4297-16.734-15.523-30.363-31.73-35.758l-31.898-10.613 10.609-31.918c4.0117-12.035 3.0781-25.168-2.5977-36.512s-15.629-19.965-27.664-23.965c-12.035-4.0039-25.172-3.0586-36.508 2.6289-11.34 5.6875-19.949 15.648-23.941 27.688l-19.469 58.449-218.28 109.28-218.28-109.28-19.465-58.453-0.003906 0.003906c-3.9883-12.043-12.602-22-23.941-27.688-11.336-5.6875-24.469-6.6328-36.508-2.6328-12.035 4.0039-21.988 12.625-27.664 23.969s-6.6094 24.477-2.5977 36.508l10.609 31.918-31.898 10.613c-16.203 5.3984-28.301 19.027-31.727 35.758-3.4297 16.73 2.3281 34.023 15.102 45.355 12.773 11.336 30.625 14.996 46.832 9.5977l58.426-19.438 154.3 77.234-154.3 77.234-58.426-19.438v0.003907c-16.207-5.3945-34.059-1.7383-46.832 9.5977-12.773 11.336-18.531 28.625-15.102 45.355 3.4258 16.73 15.523 30.363 31.727 35.758l31.898 10.613-10.609 31.918c-4.0039 12.027-3.0625 25.156 2.6133 36.492 5.6797 11.336 15.633 19.949 27.664 23.945 4.8594 1.6367 9.9492 2.4727 15.078 2.4727 10.043-0.003906 19.824-3.1719 27.965-9.0508s14.227-14.168 17.391-23.699l19.465-58.453 218.29-109.28 218.28 109.28 19.469 58.453c3.1641 9.5312 9.25 17.82 17.391 23.699s17.922 9.0469 27.965 9.0508c5.1289 0 10.223-0.83594 15.078-2.4727 12.035-3.9961 21.984-12.609 27.664-23.945 5.6797-11.336 6.6211-24.461 2.6133-36.492l-10.609-31.918 31.898-10.613h0.003906c16.203-5.3945 28.297-19.027 31.727-35.758 3.4297-16.73-2.3281-34.02-15.105-45.355-12.773-11.332-30.625-14.992-46.828-9.5977z"/>
</svg>
