<?xml version="1.0" encoding="UTF-8"?>
<svg width="100pt" height="100pt" version="1.1" viewBox="0 0 100 100" xmlns="http://www.w3.org/2000/svg">
 <path d="m35.637 4.6875c-3.3203 0-6.0586 2.7422-6.0586 6.0625 0 2.7773 1.9297 5.1445 4.5039 5.8477v8.1836c0 0.66797 0.42188 1.2578 1.0508 1.4766l7.6094 2.6641v7.9727h-4.2891c-0.86328 0.003907-1.5625 0.70703-1.5586 1.5664v4.2773l-7.9688 0.003907-2.6641-7.6094v-0.003906c-0.21484-0.62891-0.80859-1.0469-1.4766-1.0469h-8.1914c-0.70703-2.5742-3.0664-4.5039-5.8438-4.5039-3.3203 0-6.0625 2.7383-6.0625 6.0586 0 3.3203 2.7422 6.082 6.0625 6.082 2.7734 0 5.1367-1.9414 5.8438-4.5117h7.0859l2.6641 7.6211c0.21875 0.62109 0.80469 1.0352 1.4648 1.0391h9.0898v8.2578h-9.0898c-0.66406 0.003906-1.25 0.42578-1.4648 1.0508l-2.6641 7.6133h-7.0898c-0.71094-2.5703-3.0703-4.5078-5.8398-4.5078-3.3203 0-6.0625 2.7617-6.0625 6.082 0 3.3203 2.7422 6.0586 6.0625 6.0586 2.7812 0 5.1445-1.9336 5.8477-4.5078h8.1914-0.003906c0.66406 0 1.2539-0.41406 1.4766-1.0391l2.6641-7.625h7.9688v4.293c0.003907 0.85938 0.69922 1.5547 1.5586 1.5586h4.2891v7.9805l-7.6094 2.6641c-0.625 0.21484-1.0469 0.80078-1.0508 1.4648v8.1953c-2.5742 0.70312-4.5039 3.0664-4.5039 5.8477 0 3.3203 2.7383 6.0625 6.0586 6.0625 3.3203 0 6.082-2.7422 6.082-6.0625 0-2.7734-1.9414-5.1328-4.5117-5.8398v-7.082l7.6133-2.6641v-0.003907c0.62891-0.21875 1.0508-0.8125 1.0508-1.4766v-9.0898h8.2578v9.0898c0 0.66406 0.42188 1.2578 1.0508 1.4766l7.6094 2.6641v7.082c-2.5703 0.70703-4.5117 3.0664-4.5117 5.8398 0 3.3203 2.7617 6.0625 6.082 6.0625s6.0586-2.7422 6.0586-6.0625c0-2.7773-1.9297-5.1406-4.5-5.8438v-8.1953c-0.003907-0.66406-0.42578-1.25-1.0508-1.4648l-7.6133-2.668v-7.9805h4.2891v0.003906c0.85938-0.003906 1.5547-0.69922 1.5586-1.5586v-4.2891h7.9727l2.6641 7.625v-0.003906c0.22266 0.625 0.8125 1.0391 1.4766 1.0391h8.1914c0.69922 2.5742 3.0625 4.5078 5.8438 4.5078 3.3203 0 6.0625-2.7383 6.0625-6.0586 0-3.3203-2.7461-6.082-6.0625-6.082-2.7734 0-5.1289 1.9375-5.8398 4.5078h-7.0898l-2.6641-7.6133c-0.21875-0.62891-0.80859-1.0508-1.4766-1.0508h-9.0781v-8.2578h9.0781c0.66406 0 1.2539-0.41406 1.4766-1.0391l2.6641-7.625h7.0898c0.70703 2.5703 3.0625 4.5117 5.8398 4.5117 3.3203 0 6.0625-2.7617 6.0625-6.082 0-3.3203-2.7461-6.0586-6.0625-6.0586-2.7773 0-5.1367 1.9297-5.8398 4.5h-8.1953v0.007812c-0.66797 0-1.2617 0.41797-1.4766 1.0469l-2.6641 7.6094h-7.9727v-4.2773c0.003907-0.85938-0.69531-1.5625-1.5586-1.5664h-4.2891v-7.9727l7.6133-2.6641c0.62891-0.21875 1.0508-0.80859 1.0508-1.4766v-8.1875c2.5703-0.70312 4.5-3.0664 4.5-5.8438 0-3.3203-2.7383-6.0625-6.0586-6.0625s-6.082 2.7422-6.082 6.0625c0 2.7734 1.9414 5.1328 4.5117 5.8398v7.0859l-7.6094 2.6641c-0.62891 0.21875-1.0508 0.8125-1.0508 1.4766v9.0781h-8.2578v-9.0781c0-0.66406-0.42188-1.2578-1.0508-1.4766l-7.6133-2.6641v-7.0859c2.5703-0.70703 4.5117-3.0664 4.5117-5.8398 0-3.3203-2.7617-6.0625-6.082-6.0625zm4.3828 35.332h19.957v19.957h-19.957z" fill="#00449e"/>
</svg>
