<?xml version="1.0" encoding="UTF-8"?>
<svg width="100pt" height="100pt" version="1.1" viewBox="0 0 100 100" xmlns="http://www.w3.org/2000/svg">
 <g fill="#ff0">
  <path d="m82.812 46.035s0.23438-1.2539 0.48438-1.2539-1.3516 0.39844-1.3516 0.39844l-1.8008-0.55078-1.582 1.6172s-1.168 1.0508-1.4336-1.1172l-1.6328-0.33203s-2.2852-2.0156 0.30078-2.1328l1-0.75 0.18359-0.98437 1.582-1.3672 1.3008-1.3672 1.1484 0.21875s-1.1328 4.9336 0.13281 3.5c1.2656-1.4336 2.2852-2.2656 2.7344-2.2656 0.44922 0 3.9492-5.1328 3.9492-5.1328l0.38281 0.44922s2.0156 0.13281 1.25-0.94922c-0.76563-1.0859-0.050782-0.61719 0.25-0.61719 0.30078 0 2.3984-1.8516 1.8984-2.7344-0.5-0.88281 0.81641 0.48438 0.81641 0.48438l0.76562-0.78125s-1.1992-3.3711-1.0664-3.7695c0.13281-0.39844 0.78125-0.93359 0.78125-1s1.6992 1.5508 1.6836-1.2344c-0.019532-2.7812 0.85156-6.0312 0.41406-6.4336-0.43359-0.39844-1.7344 1.1328-1.7344 1.1328l-0.76562 0.10156-0.39844 0.76563-1.7656 0.81641-0.85156-0.68359-0.61719-1.4336-1.918-0.5s-1.0156 0.015625-1.0156-0.050781-0.75 0.33203-0.75 0.33203l-0.86719-1.1016s-3.5508-5.2344-3.9688-5.2656c-0.41406-0.03125-1.7812 0.13281-2.3516-0.38281-0.56641-0.51562-1.918 0.33203-2.0664 0.51562-0.14844 0.18359-1.418 0.85156-1.7852 0.76562-0.36719-0.082031-1.6328 2.1484-0.16406 1.6484s0.18359 1.6836-0.16797 1.918c-0.35156 0.23438-0.86719 2.3672-0.81641 2.5508s0.48438 0.73438-0.5 1.4492c-0.98438 0.71875-2.1172 0.73438-2.6328 0.5-0.51563-0.23437-1.2656 3.5508-1.1172 3.7812 0.14844 0.23438 0.5 0.56641 0.5 0.56641s0.5-0.5 0.81641-0.30078c0.31641 0.19922 0.96875-0.21875 1.1641 0.11719 0.19922 0.33203 0.085937-1.8008 2.168-0.35156 2.082 1.4492 2.1172 1.8672 0.30078 1.8828-1.8164 0.015625-0.066407 0.21484-1.8984 0.75l-0.35156 0.73438-0.30078-0.36719s-0.64844 0.78125-0.80078 0.78125c-0.14844 0-0.03125 0.78125-0.03125 0.78125s-1.1172 1-2.2344 0.94922c-1.1172-0.050781-0.43359 2.0664-3.4336 1.1172l-0.63281 0.51562s-0.41406 1.7148 0.13281 1.9336c0.55078 0.21875 0.050781 1-0.43359 1s-0.94922 2.0664-1.7188 2.0352c-0.76562-0.035156-3.6172 0.75-3.6172 0.75l-4.0508 1.6992s-0.56641-0.03125-0.64844-0.36719c-0.082032-0.33594-2.6641-0.38281-2.9336-0.38281-0.26953 0-1.3828-1.8672-4.6836-1.0312-3.3008 0.83203-4.6484-0.76562-4.7148-0.75-0.066406 0.015626-1.3984-2.9688-1.3984-2.9688l-2.8828-1.9336s-4-0.13281-3.7852-1.3164l0.55078-1s-0.050781-0.80078 0-0.94922c0.050781-0.14844 0.23438-0.63281 0.23438-0.63281s-2.168-1.8008-3.7656-5.332l-0.48047-0.28125s-0.72656 0.16406-0.98828 0.085938c-0.26172-0.074219 0.11328 0.64844-1.8242 1.1133-1.9375 0.46094-0.52344 2.4375-0.52344 2.4375s0.89844 2.25-3.7109-0.91406c0 0-0.82422 2.5625-1.6133 2.9141-0.78906 0.35156 0.28906 0.94922 0.28906 0.94922l-3.5859-0.10156s0.8125 0.73828-0.0625 1.1992l0.050781-0.027344v1.1289l0.22656 0.63672s-0.14844 1.4375-1.2383 2.1016v0.8125l-0.82422 0.33594-0.17578 0.39844-0.875-0.17578s-1.9258 0.92578-1.9258 0.98828-1.8633-0.089843-1.8633-0.22656-0.91406 0.8125-0.91406 0.8125l-1.125-0.074219-0.22656-0.52344s-0.9375 0.0625-1.125-0.13672-0.26172 0.52344-1.3359 0.52344h0.050781l-0.52344 0.46484v0.44922l-0.72656 0.80078 0.074219 1.3984 0.64844-0.13672 0.83594 0.8125s0.47656 2.7734-1.4375 2.2891c-1.9102-0.48828 2.0391 2 2.0391 2s0.32422 0.55078-0.4375 1.0625c-0.76172 0.51172 1.8516 1.5391 1.8516 1.5391s1.0234 0.42578 1.9492 0.074219c0.92578-0.35156 3.9883 0.58594 2.0508 2.6367l-1.0234 1h-1.0625l0.125 0.55078-0.32422 0.32422 0.42578 0.75 0.36328 0.25 0.011719 1.1133h-0.58984l-0.41016 0.46094-0.71484-0.75s-0.38672 0.78906 0.0625 1.0391 0.039062 1.3516-0.1875 1.6016 3.4766 3.6992 3.4766 3.6992l0.69922-0.375s1.9258 1.3633 1.9258 1.5898c0 0.22656 1.2891 1.5117 1.2891 1.5117l0.72656-0.16016s0.60156-0.023437 0.14844 0.86328c-0.44922 0.88672 1 0.875 1 0.875l2.0625 1.7148h1.1016s1.7266 1.1484 2.8984 0.5c1.1758-0.64844 1.4258 0.13672 0.82422 0.96094-0.60156 0.82422 1.3984-0.53516 1.4375-0.875 0.035156-0.33594 1.3125-0.73828 1.9375 0.16406 0.625 0.89844 0.86328 0.38672 1.0859 0.35156 0.22656-0.035156 0.80078 0.039062 1.0508 0.5 0.25 0.46484 1.8867-0.10156 1.7617-0.52344-0.125-0.42578 1.1758-0.875 1.1758-0.875l1 0.023438s1.0859-1.375 2.6484-0.66016l1.3516-0.66406 0.52344 0.4375-0.32422 0.36328 0.73828 0.52344s-2.3008 1.3867 1.375 1.1641c3.6758-0.22656 1.5 4.9375 1 6.1875s-1.0391 1.5508-1.0391 1.5508l0.11328 1.1992 2.0742-0.1875-0.10156 0.5625s0.14844 1.5625 0.97656 1.5625c0.82422 0 0.48828 1.1758-0.085938 1.9883 0 0 1.2734 0.23828 1.3516 0.61328 0.074219 0.375 1.2266 1.1602 1.8125 0.57422 0.58984-0.58984 0.75 0.21094 0.72656 0.85156-0.023438 0.63672 0.96484 0 0.96484 0l-0.22656-1.6602s-0.4375-0.78906 0.71094-0.67578c1.1484 0.11328 1.3984-0.6875 1.3984-0.6875l0.61328 0.33594 0.625-0.36328 0.27344 0.074219 0.33594-0.13672 0.42578 0.375 0.3125-0.39844 0.60156 0.14844 0.67578-0.26172 0.22656-0.77344s0.88672-0.80078 1.3242 0.17578c0.4375 0.97656 2.3398 0.4375 2.3398 0.4375l-0.41406 0.66016 1.5742 1.7891s0.55078-0.63672 1.4766 0.050782 1.0742-0.089844 1.0742-0.089844v-0.58594l1.5 0.80078 1.1367 0.011718s-0.73828 1.9766 0.63672 2.1758c1.375 0.19922 0.67578-0.61328 0.67578-0.61328s-1.1758-0.875 0.074219-1.4258 4.4648-1.9102 4.4648-1.9102l1.0859-0.91016-0.25-1.125 0.875 0.64844s4.4375-0.074218 5.5625-2.9102l0.92578-0.90234 0.80078-1-0.23438-0.35156 2.1328-2.4492s3.6484-8.5664 3.3008-9.0312c-0.35156-0.46875 1.1328-1.5664-2.9844-1.3984-4.1172 0.16406 1.8984-1.9688 2.3008-1.9688s-0.35156-1.8164-0.35156-1.8164l-2.3984-1.8008-1.5-2.6836s-2.3008-1-1.5-2.082c0.80078-1.082 2.4844-4.082 4.0664-4.0664"/>
  <path d="m63.492 88.516v0.30078s0.6875 0.26562 0.75391 0.51562 0.60156-0.26562 1.0352 0.082031c0.43359 0.35156 0.30078-0.58203 0.69922-0.56641 0.39844 0.015625 0.36719-0.68359 0.75-0.68359 0.38281 0 0.31641-1.9336 1.1016-2.3516 0.78125-0.41797-1.168-1.1016-1.0156-0.63281l-0.91797 0.21875h-1l-0.33203 0.43359h-0.36719v0.46875s-1.4688 1.2656-0.66406 2.2656z"/>
 </g>
</svg>
